999
dxflib 3.3.4.0
  0
SECTION
  2
HEADER
  9
$ACADVER
  1
AC1015
  9
$HANDSEED
  5
FFFF
  9
$DIMADEC
 70
0
  9
$DIMASZ
 40
2.5
  9
$DIMAUNIT
 70
0
  9
$DIMAZIN
 70
2
  9
$DIMDEC
 70
4
  9
$DIMEXE
 40
1.25
  9
$DIMEXO
 40
0.625
  9
$DIMGAP
 40
0.625
  9
$DIMLUNIT
 70
2
  9
$DIMSCALE
 40
1.0
  9
$DIMTSZ
 40
0.0
  9
$DIMTXT
 40
2.5
  9
$DIMZIN
 70
8
  9
$DWGCODEPAGE
  3
ANSI_1252
  9
$INSUNITS
 70
4
  9
$LTSCALE
 40
1.0
  0
ENDSEC
  0
SECTION
  2
TABLES
  0
TABLE
  2
VPORT
  5
8
100
AcDbSymbolTable
 70
1
  0
VPORT
  5
30
100
AcDbSymbolTableRecord
100
AcDbViewportTableRecord
  2
*Active
 70
0
 10
0.0
 20
0.0
 11
1.0
 21
1.0
 12
286.30555555555549
 22
148.5
 13
0.0
 23
0.0
 14
10.0
 24
10.0
 15
10.0
 25
10.0
 16
0.0
 26
0.0
 36
1.0
 17
0.0
 27
0.0
 37
0.0
 40
297.0
 41
1.92798353909465
 42
50.0
 43
0.0
 44
0.0
 50
0.0
 51
0.0
 71
0
 72
100
 73
1
 74
3
 75
1
 76
1
 77
0
 78
0
281
0
 65
1
110
0.0
120
0.0
130
0.0
111
1.0
121
0.0
131
0.0
112
0.0
122
1.0
132
0.0
 79
0
146
0.0
  0
ENDTAB
  0
TABLE
  2
LTYPE
  5
5
100
AcDbSymbolTable
 70
21
  0
LTYPE
  5
16
100
AcDbSymbolTableRecord
100
AcDbLinetypeTableRecord
  2
CONTINUOUS
 70
0
  3
Solid line
 72
65
 73
0
 40
0.0
  0
LTYPE
  5
31
100
AcDbSymbolTableRecord
100
AcDbLinetypeTableRecord
  2
CENTER2
 70
0
  3
Center (.5x) ___ _ ___ _ ___ _ ___ _ ___ _ ___
 72
65
 73
4
 40
28.574999999999999
 49
19.050000000000001
 74
0
 49
-3.1749999999999998
 74
0
 49
3.1749999999999998
 74
0
 49
-3.1749999999999998
 74
0
  0
LTYPE
  5
32
100
AcDbSymbolTableRecord
100
AcDbLinetypeTableRecord
  2
DIVIDEX2
 70
0
  3
Divide (2x) ________  .  .  ________  .  .  _
 72
65
 73
6
 40
63.5
 49
25.399999999999999
 74
0
 49
-12.699999999999999
 74
0
 49
0.0
 74
0
 49
-12.699999999999999
 74
0
 49
0.0
 74
0
 49
-12.699999999999999
 74
0
  0
LTYPE
  5
33
100
AcDbSymbolTableRecord
100
AcDbLinetypeTableRecord
  2
DOT2
 70
0
  3
Dot (.5x) .....................................
 72
65
 73
2
 40
3.1749999999999998
 49
0.0
 74
0
 49
-3.1749999999999998
 74
0
  0
LTYPE
  5
34
100
AcDbSymbolTableRecord
100
AcDbLinetypeTableRecord
  2
DASHDOT2
 70
0
  3
Dash dot (.5x) _._._._._._._._._._._._._._._.
 72
65
 73
4
 40
12.699999999999999
 49
6.3499999999999996
 74
0
 49
-3.1749999999999998
 74
0
 49
0.0
 74
0
 49
-3.1749999999999998
 74
0
  0
LTYPE
  5
35
100
AcDbSymbolTableRecord
100
AcDbLinetypeTableRecord
  2
DIVIDE
 70
0
  3
Divide ____ . . ____ . . ____ . . ____ . . ____
 72
65
 73
6
 40
31.75
 49
12.699999999999999
 74
0
 49
-6.3499999999999996
 74
0
 49
0.0
 74
0
 49
-6.3499999999999996
 74
0
 49
0.0
 74
0
 49
-6.3499999999999996
 74
0
  0
LTYPE
  5
36
100
AcDbSymbolTableRecord
100
AcDbLinetypeTableRecord
  2
DASHDOT
 70
0
  3
Dash dot __ . __ . __ . __ . __ . __ . __ . __
 72
65
 73
4
 40
25.399999999999999
 49
12.699999999999999
 74
0
 49
-6.3499999999999996
 74
0
 49
0.0
 74
0
 49
-6.3499999999999996
 74
0
  0
LTYPE
  5
37
100
AcDbSymbolTableRecord
100
AcDbLinetypeTableRecord
  2
BORDER
 70
0
  3
Border __ __ . __ __ . __ __ . __ __ . __ __ .
 72
65
 73
6
 40
44.450000000000003
 49
12.699999999999999
 74
0
 49
-6.3499999999999996
 74
0
 49
12.699999999999999
 74
0
 49
-6.3499999999999996
 74
0
 49
0.0
 74
0
 49
-6.3499999999999996
 74
0
  0
LTYPE
  5
38
100
AcDbSymbolTableRecord
100
AcDbLinetypeTableRecord
  2
DASHDOTX2
 70
0
  3
Dash dot (2x) ____  .  ____  .  ____  .  ___
 72
65
 73
4
 40
50.799999999999997
 49
25.399999999999999
 74
0
 49
-12.699999999999999
 74
0
 49
0.0
 74
0
 49
-12.699999999999999
 74
0
  0
LTYPE
  5
39
100
AcDbSymbolTableRecord
100
AcDbLinetypeTableRecord
  2
CENTERX2
 70
0
  3
Center (2x) ________  __  ________  __  _____
 72
65
 73
4
 40
101.59999999999999
 49
63.5
 74
0
 49
-12.699999999999999
 74
0
 49
12.699999999999999
 74
0
 49
-12.699999999999999
 74
0
  0
LTYPE
  5
3A
100
AcDbSymbolTableRecord
100
AcDbLinetypeTableRecord
  2
BORDER2
 70
0
  3
Border (.5x) __.__.__.__.__.__.__.__.__.__.__.
 72
65
 73
6
 40
22.225000000000001
 49
6.3499999999999996
 74
0
 49
-3.1749999999999998
 74
0
 49
6.3499999999999996
 74
0
 49
-3.1749999999999998
 74
0
 49
0.0
 74
0
 49
-3.1749999999999998
 74
0
  0
LTYPE
  5
3B
100
AcDbSymbolTableRecord
100
AcDbLinetypeTableRecord
  2
BORDERX2
 70
0
  3
Border (2x) ____  ____  .  ____  ____  .  ___
 72
65
 73
6
 40
88.900000000000006
 49
25.399999999999999
 74
0
 49
-12.699999999999999
 74
0
 49
25.399999999999999
 74
0
 49
-12.699999999999999
 74
0
 49
0.0
 74
0
 49
-12.699999999999999
 74
0
  0
LTYPE
  5
14
100
AcDbSymbolTableRecord
100
AcDbLinetypeTableRecord
  2
BYBLOCK
 70
0
  3

 72
65
 73
0
 40
0.0
  0
LTYPE
  5
15
100
AcDbSymbolTableRecord
100
AcDbLinetypeTableRecord
  2
BYLAYER
 70
0
  3

 72
65
 73
0
 40
0.0
  0
LTYPE
  5
3C
100
AcDbSymbolTableRecord
100
AcDbLinetypeTableRecord
  2
DASHED2
 70
0
  3
Dashed (.5x) _ _ _ _ _ _ _ _ _ _ _ _ _ _ _ _ _
 72
65
 73
2
 40
9.5250000000000004
 49
6.3499999999999996
 74
0
 49
-3.1749999999999998
 74
0
  0
LTYPE
  5
3D
100
AcDbSymbolTableRecord
100
AcDbLinetypeTableRecord
  2
CENTER
 70
0
  3
Center ____ _ ____ _ ____ _ ____ _ ____ _ ____
 72
65
 73
4
 40
50.799999999999997
 49
31.75
 74
0
 49
-6.3499999999999996
 74
0
 49
6.3499999999999996
 74
0
 49
-6.3499999999999996
 74
0
  0
LTYPE
  5
3E
100
AcDbSymbolTableRecord
100
AcDbLinetypeTableRecord
  2
DIVIDE2
 70
0
  3
Divide (.5x) __..__..__..__..__..__..__..__.._
 72
65
 73
6
 40
15.875
 49
6.3499999999999996
 74
0
 49
-3.1749999999999998
 74
0
 49
0.0
 74
0
 49
-3.1749999999999998
 74
0
 49
0.0
 74
0
 49
-3.1749999999999998
 74
0
  0
LTYPE
  5
3F
100
AcDbSymbolTableRecord
100
AcDbLinetypeTableRecord
  2
DASHED
 70
0
  3
Dashed __ __ __ __ __ __ __ __ __ __ __ __ __ _
 72
65
 73
2
 40
19.050000000000001
 49
12.699999999999999
 74
0
 49
-6.3499999999999996
 74
0
  0
LTYPE
  5
40
100
AcDbSymbolTableRecord
100
AcDbLinetypeTableRecord
  2
DOTX2
 70
0
  3
Dot (2x) .  .  .  .  .  .  .  .  .  .  .  .  .
 72
65
 73
2
 40
12.699999999999999
 49
0.0
 74
0
 49
-12.699999999999999
 74
0
  0
LTYPE
  5
41
100
AcDbSymbolTableRecord
100
AcDbLinetypeTableRecord
  2
DASHEDX2
 70
0
  3
Dashed (2x) ____  ____  ____  ____  ____  ___
 72
65
 73
2
 40
38.100000000000001
 49
25.399999999999999
 74
0
 49
-12.699999999999999
 74
0
  0
LTYPE
  5
42
100
AcDbSymbolTableRecord
100
AcDbLinetypeTableRecord
  2
DOT
 70
0
  3
Dot . . . . . . . . . . . . . . . . . . . . . .
 72
65
 73
2
 40
6.3499999999999996
 49
0.0
 74
0
 49
-6.3499999999999996
 74
0
  0
ENDTAB
  0
TABLE
  2
LAYER
  5
2
100
AcDbSymbolTable
 70
7
  0
LAYER
  5
43
100
AcDbSymbolTableRecord
100
AcDbLayerTableRecord
  2
Cut insides
 70
0
 62
1
420
16711680
  6
CONTINUOUS
370
0
390
F
  0
LAYER
  5
44
100
AcDbSymbolTableRecord
100
AcDbLayerTableRecord
  2
Cut outside
 70
0
 62
5
420
255
  6
CONTINUOUS
370
0
390
F
  0
LAYER
  5
45
100
AcDbSymbolTableRecord
100
AcDbLayerTableRecord
  2
Engrave
 70
0
 62
7
420
0
  6
CONTINUOUS
370
25
390
F
  0
LAYER
  5
46
100
AcDbSymbolTableRecord
100
AcDbLayerTableRecord
  2
Docs
 70
1
 62
-3
420
65280
  6
CONTINUOUS
370
0
390
F
  0
LAYER
  5
10
100
AcDbSymbolTableRecord
100
AcDbLayerTableRecord
  2
0
 70
0
 62
7
420
0
  6
CONTINUOUS
370
25
390
F
  0
LAYER
  5
47
100
AcDbSymbolTableRecord
100
AcDbLayerTableRecord
  2
2x1 sheet
 70
5
 62
-4
420
65535
  6
CONTINUOUS
370
25
390
F
  0
LAYER
  5
48
100
AcDbSymbolTableRecord
100
AcDbLayerTableRecord
  2
Letter page
 70
1
 62
-3
420
65280
  6
CONTINUOUS
370
25
390
F
  0
ENDTAB
  0
TABLE
  2
STYLE
  5
3
100
AcDbSymbolTable
 70
10
  0
STYLE
  5
49
100
AcDbSymbolTableRecord
100
AcDbTextStyleTableRecord
  2
Standard
 70
0
 40
0.0
 41
1.0
 50
0.0
 71
0
 42
2.5
  3

  4

1001
ACAD
1000
txt
1071
0
  0
STYLE
  5
4A
100
AcDbSymbolTableRecord
100
AcDbTextStyleTableRecord
  2
textstyle0
 70
0
 40
0.0
 41
1.0
 50
0.0
 71
0
 42
1.0
  3

  4

1001
ACAD
1000
Arial
1071
0
  0
STYLE
  5
4B
100
AcDbSymbolTableRecord
100
AcDbTextStyleTableRecord
  2
textstyle1
 70
0
 40
0.0
 41
1.0
 50
0.0
 71
0
 42
1.0
  3

  4

1001
ACAD
1000
Arial
1071
0
  0
STYLE
  5
4C
100
AcDbSymbolTableRecord
100
AcDbTextStyleTableRecord
  2
textstyle2
 70
0
 40
0.0
 41
1.0
 50
0.0
 71
0
 42
1.0
  3

  4

1001
ACAD
1000
Arial
1071
0
  0
STYLE
  5
4D
100
AcDbSymbolTableRecord
100
AcDbTextStyleTableRecord
  2
textstyle3
 70
0
 40
0.0
 41
1.0
 50
0.0
 71
0
 42
9.0
  3

  4

1001
ACAD
1000
Impact
1071
0
  0
STYLE
  5
4E
100
AcDbSymbolTableRecord
100
AcDbTextStyleTableRecord
  2
textstyle4
 70
0
 40
0.0
 41
1.0
 50
0.0
 71
0
 42
1.0
  3

  4

1001
ACAD
1000
Arial
1071
0
  0
STYLE
  5
4F
100
AcDbSymbolTableRecord
100
AcDbTextStyleTableRecord
  2
textstyle5
 70
0
 40
0.0
 41
1.0
 50
0.0
 71
0
 42
1.0
  3

  4

1001
ACAD
1000
Arial
1071
0
  0
STYLE
  5
50
100
AcDbSymbolTableRecord
100
AcDbTextStyleTableRecord
  2
textstyle6
 70
0
 40
0.0
 41
1.0
 50
0.0
 71
0
 42
8.0
  3

  4

1001
ACAD
1000
Impact
1071
0
  0
STYLE
  5
51
100
AcDbSymbolTableRecord
100
AcDbTextStyleTableRecord
  2
textstyle7
 70
0
 40
0.0
 41
1.0
 50
0.0
 71
0
 42
3.0
  3

  4

1001
ACAD
1000
Arial
1071
0
  0
STYLE
  5
52
100
AcDbSymbolTableRecord
100
AcDbTextStyleTableRecord
  2
textstyle8
 70
0
 40
0.0
 41
1.0
 50
0.0
 71
0
 42
5.0
  3

  4

1001
ACAD
1000
Arial Black
1071
0
  0
ENDTAB
  0
TABLE
  2
VIEW
  5
6
100
AcDbSymbolTable
 70
0
  0
ENDTAB
  0
TABLE
  2
UCS
  5
7
100
AcDbSymbolTable
 70
0
  0
ENDTAB
  0
TABLE
  2
APPID
  5
9
100
AcDbSymbolTable
 70
1
  0
APPID
  5
12
100
AcDbSymbolTableRecord
100
AcDbRegAppTableRecord
  2
ACAD
 70
0
  0
APPID
  5
53
100
AcDbSymbolTableRecord
100
AcDbRegAppTableRecord
  2
QCAD
 70
0
  0
ENDTAB
  0
TABLE
  2
DIMSTYLE
  5
A
100
AcDbSymbolTable
 70
1
100
AcDbDimStyleTable
 71
0
  0
DIMSTYLE
105
27
100
AcDbSymbolTableRecord
100
AcDbDimStyleTableRecord
  2
Standard
 41
2.5
 42
0.625
 43
3.75
 44
1.25
 70
0
 73
0
 74
0
 77
1
 78
8
140
2.5
141
2.5
143
0.03937007874016
147
0.625
171
3
172
1
271
2
272
2
274
3
278
44
283
0
284
8
340
49
  0
ENDTAB
  0
TABLE
  2
BLOCK_RECORD
  5
1
100
AcDbSymbolTable
 70
1
  0
BLOCK_RECORD
  5
1F
100
AcDbSymbolTableRecord
100
AcDbBlockTableRecord
  2
*Model_Space
340
22
  0
BLOCK_RECORD
  5
1B
100
AcDbSymbolTableRecord
100
AcDbBlockTableRecord
  2
*Paper_Space
340
1E
  0
BLOCK_RECORD
  5
23
100
AcDbSymbolTableRecord
100
AcDbBlockTableRecord
  2
*Paper_Space0
340
26
  0
BLOCK_RECORD
  5
54
100
AcDbSymbolTableRecord
100
AcDbBlockTableRecord
  2
shovel-blank
340
0
  0
BLOCK_RECORD
  5
55
100
AcDbSymbolTableRecord
100
AcDbBlockTableRecord
  2
arduino
340
0
  0
BLOCK_RECORD
  5
56
100
AcDbSymbolTableRecord
100
AcDbBlockTableRecord
  2
side
340
0
  0
BLOCK_RECORD
  5
57
100
AcDbSymbolTableRecord
100
AcDbBlockTableRecord
  2
shovel-LetItCrash
340
0
  0
BLOCK_RECORD
  5
58
100
AcDbSymbolTableRecord
100
AcDbBlockTableRecord
  2
shovel-accessory
340
0
  0
BLOCK_RECORD
  5
59
100
AcDbSymbolTableRecord
100
AcDbBlockTableRecord
  2
original-side
340
0
  0
BLOCK_RECORD
  5
5A
100
AcDbSymbolTableRecord
100
AcDbBlockTableRecord
  2
wheel
340
0
  0
BLOCK_RECORD
  5
5B
100
AcDbSymbolTableRecord
100
AcDbBlockTableRecord
  2
bottom
340
0
  0
BLOCK_RECORD
  5
5C
100
AcDbSymbolTableRecord
100
AcDbBlockTableRecord
  2
camera_holder
340
0
  0
BLOCK_RECORD
  5
5D
100
AcDbSymbolTableRecord
100
AcDbBlockTableRecord
  2
top
340
0
  0
BLOCK_RECORD
  5
5E
100
AcDbSymbolTableRecord
100
AcDbBlockTableRecord
  2
picamera
340
0
  0
BLOCK_RECORD
  5
5F
100
AcDbSymbolTableRecord
100
AcDbBlockTableRecord
  2
shovel-BEAM
340
0
  0
BLOCK_RECORD
  5
60
100
AcDbSymbolTableRecord
100
AcDbBlockTableRecord
  2
raspberrypi
340
0
  0
BLOCK_RECORD
  5
61
100
AcDbSymbolTableRecord
100
AcDbBlockTableRecord
  2
Nerves-logo
340
0
  0
BLOCK_RECORD
  5
62
100
AcDbSymbolTableRecord
100
AcDbBlockTableRecord
  2
shovel-grill
340
0
  0
BLOCK_RECORD
  5
63
100
AcDbSymbolTableRecord
100
AcDbBlockTableRecord
  2
shovel-Nerves
340
0
  0
ENDTAB
  0
ENDSEC
  0
SECTION
  2
BLOCKS
  0
BLOCK
  5
20
100
AcDbEntity
  8
0
100
AcDbBlockBegin
  2
*Model_Space
 70
0
 10
0.0
 20
0.0
 30
0.0
  3
*Model_Space
  1

  0
ENDBLK
  5
21
100
AcDbEntity
  8
0
100
AcDbBlockEnd
  0
BLOCK
  5
1C
100
AcDbEntity
 67
1
  8
0
100
AcDbBlockBegin
  2
*Paper_Space
 70
0
 10
0.0
 20
0.0
 30
0.0
  3
*Paper_Space
  1

  0
ENDBLK
  5
1D
100
AcDbEntity
 67
1
  8
0
100
AcDbBlockEnd
  0
BLOCK
  5
24
100
AcDbEntity
  8
0
100
AcDbBlockBegin
  2
*Paper_Space0
 70
0
 10
0.0
 20
0.0
 30
0.0
  3
*Paper_Space0
  1

  0
ENDBLK
  5
25
100
AcDbEntity
  8
0
100
AcDbBlockEnd
  0
BLOCK
  5
64
100
AcDbEntity
  8
0
100
AcDbBlockBegin
  2
shovel-blank
 70
0
 10
0.0
 20
0.0
 30
0.0
  3
shovel-blank
  1

  0
LINE
  5
65
100
AcDbEntity
100
AcDbLine
  8
Cut outside
 62
256
370
-1
  6
BYLAYER
 10
0.0
 20
44.999999999999972
 30
0.0
 11
105.0
 21
44.999999999999972
 31
0.0
  0
LINE
  5
66
100
AcDbEntity
100
AcDbLine
  8
Cut outside
 62
256
370
-1
  6
BYLAYER
 10
105.0
 20
44.999999999999972
 30
0.0
 11
105.0
 21
-0.0000000000000284
 31
0.0
  0
LINE
  5
67
100
AcDbEntity
100
AcDbLine
  8
Cut outside
 62
256
370
-1
  6
BYLAYER
 10
105.0
 20
-0.0000000000000284
 30
0.0
 11
0.0
 21
-0.0000000000000284
 31
0.0
  0
LINE
  5
68
100
AcDbEntity
100
AcDbLine
  8
Cut outside
 62
256
370
-1
  6
BYLAYER
 10
0.0
 20
-0.0000000000000284
 30
0.0
 11
0.0
 21
44.999999999999972
 31
0.0
  0
LINE
  5
69
100
AcDbEntity
100
AcDbLine
  8
Cut insides
 62
256
370
-1
  6
BYLAYER
 10
17.725000000000001
 20
27.38749999999996
 30
0.0
 11
22.5
 21
27.38749999999996
 31
0.0
  0
LINE
  5
6A
100
AcDbEntity
100
AcDbLine
  8
Cut insides
 62
256
370
-1
  6
BYLAYER
 10
22.5
 20
27.38749999999996
 30
0.0
 11
22.5
 21
17.612499999999955
 31
0.0
  0
LINE
  5
6B
100
AcDbEntity
100
AcDbLine
  8
Cut insides
 62
256
370
-1
  6
BYLAYER
 10
22.5
 20
17.612499999999955
 30
0.0
 11
17.725000000000001
 21
17.612499999999955
 31
0.0
  0
LINE
  5
6C
100
AcDbEntity
100
AcDbLine
  8
Cut insides
 62
256
370
-1
  6
BYLAYER
 10
17.725000000000001
 20
17.612499999999955
 30
0.0
 11
17.725000000000001
 21
27.38749999999996
 31
0.0
  0
LINE
  5
6D
100
AcDbEntity
100
AcDbLine
  8
Cut insides
 62
256
370
-1
  6
BYLAYER
 10
82.5
 20
27.38749999999996
 30
0.0
 11
87.275000000000006
 21
27.38749999999996
 31
0.0
  0
LINE
  5
6E
100
AcDbEntity
100
AcDbLine
  8
Cut insides
 62
256
370
-1
  6
BYLAYER
 10
87.275000000000006
 20
27.38749999999996
 30
0.0
 11
87.275000000000006
 21
17.612499999999955
 31
0.0
  0
LINE
  5
6F
100
AcDbEntity
100
AcDbLine
  8
Cut insides
 62
256
370
-1
  6
BYLAYER
 10
87.275000000000006
 20
17.612499999999955
 30
0.0
 11
82.5
 21
17.612499999999955
 31
0.0
  0
LINE
  5
70
100
AcDbEntity
100
AcDbLine
  8
Cut insides
 62
256
370
-1
  6
BYLAYER
 10
82.5
 20
17.612499999999955
 30
0.0
 11
82.5
 21
27.38749999999996
 31
0.0
  0
ENDBLK
  5
71
100
AcDbEntity
  8
0
100
AcDbBlockEnd
  0
BLOCK
  5
72
100
AcDbEntity
  8
0
100
AcDbBlockBegin
  2
arduino
 70
0
 10
0.0
 20
0.0
 30
0.0
  3
arduino
  1

  0
CIRCLE
  5
73
100
AcDbEntity
100
AcDbCircle
  8
Cut insides
 62
256
370
-1
  6
BYLAYER
 10
0.0
 20
0.0
 30
0.0
 40
1.25
  0
CIRCLE
  5
74
100
AcDbEntity
100
AcDbCircle
  8
Cut insides
 62
256
370
-1
  6
BYLAYER
 10
27.899999999999999
 20
0.0
 30
0.0
 40
1.25
  0
CIRCLE
  5
75
100
AcDbEntity
100
AcDbCircle
  8
Cut insides
 62
256
370
-1
  6
BYLAYER
 10
-15.199999999999999
 20
50.799999999999997
 30
0.0
 40
1.25
  0
CIRCLE
  5
76
100
AcDbEntity
100
AcDbCircle
  8
Cut insides
 62
256
370
-1
  6
BYLAYER
 10
33.100000000000001
 20
52.100000000000001
 30
0.0
 40
1.25
  0
ENDBLK
  5
77
100
AcDbEntity
  8
0
100
AcDbBlockEnd
  0
BLOCK
  5
78
100
AcDbEntity
  8
0
100
AcDbBlockBegin
  2
side
 70
0
 10
0.0
 20
0.0
 30
0.0
  3
side
  1

  0
DIMENSION
  5
79
100
AcDbEntity
  8
Docs
 62
256
370
-1
  6
BYLAYER
100
AcDbDimension
 10
0.0
 20
65.112500000000011
 30
0.0
 11
2.5
 21
66.987500000000011
 31
0.0
 70
0
 71
8
 72
2
 41
1.0
 42
0.0
  1

  3
Standard
100
AcDbAlignedDimension
 13
5.0
 23
65.112500000000011
 33
0.0
 14
0.0
 24
65.112500000000011
 34
0.0
 50
0.0
100
AcDbRotatedDimension
1001
ACAD
1000
DSTYLE
1002
{
1070
144
1040
1
1002
}
  0
LINE
  5
7A
100
AcDbEntity
100
AcDbLine
  8
Cut outside
 62
256
370
-1
  6
BYLAYER
 10
-15.550000000000001
 20
75.0
 30
0.0
 11
-15.550000000000001
 21
65.449999999999989
 31
0.0
  0
LINE
  5
7B
100
AcDbEntity
100
AcDbLine
  8
Cut outside
 62
256
370
-1
  6
BYLAYER
 10
-10.775
 20
70.224999999999994
 30
0.0
 11
-1.0
 21
70.224999999999994
 31
0.0
  0
LINE
  5
7C
100
AcDbEntity
100
AcDbLine
  8
Cut outside
 62
256
370
-1
  6
BYLAYER
 10
-1.0
 20
70.224999999999994
 30
0.0
 11
-1.0
 21
75.0
 31
0.0
  0
LINE
  5
7D
100
AcDbEntity
100
AcDbLine
  8
Cut outside
 62
256
370
-1
  6
BYLAYER
 10
-10.775
 20
75.0
 30
0.0
 11
-10.775
 21
70.224999999999994
 31
0.0
  0
LINE
  5
7E
100
AcDbEntity
100
AcDbLine
  8
Cut outside
 62
256
370
-1
  6
BYLAYER
 10
0.0
 20
75.0
 30
0.0
 11
-1.0
 21
75.0
 31
0.0
  0
LINE
  5
7F
100
AcDbEntity
100
AcDbLine
  8
Cut outside
 62
256
370
-1
  6
BYLAYER
 10
-10.775000000000002
 20
75.0
 30
0.0
 11
-15.550000000000001
 21
75.0
 31
0.0
  0
LINE
  5
80
100
AcDbEntity
100
AcDbLine
  8
Cut outside
 62
256
370
-1
  6
BYLAYER
 10
-15.550000000000001
 20
65.449999999999989
 30
0.0
 11
0.0
 21
56.472203314101307
 31
0.0
  0
LINE
  5
81
100
AcDbEntity
100
AcDbLine
  8
Cut insides
 62
256
370
-1
  6
BYLAYER
 10
4.9999999999999929
 20
70.0
 30
0.0
 11
9.7749999999999986
 21
70.0
 31
0.0
  0
LINE
  5
82
100
AcDbEntity
100
AcDbLine
  8
Cut insides
 62
256
370
-1
  6
BYLAYER
 10
9.7749999999999986
 20
70.0
 30
0.0
 11
9.7749999999999986
 21
60.225000000000001
 31
0.0
  0
LINE
  5
83
100
AcDbEntity
100
AcDbLine
  8
Cut insides
 62
256
370
-1
  6
BYLAYER
 10
9.7749999999999986
 20
60.225000000000001
 30
0.0
 11
4.9999999999999929
 21
60.225000000000001
 31
0.0
  0
LINE
  5
84
100
AcDbEntity
100
AcDbLine
  8
Cut insides
 62
256
370
-1
  6
BYLAYER
 10
4.9999999999999929
 20
60.225000000000001
 30
0.0
 11
4.9999999999999929
 21
70.0
 31
0.0
  0
LINE
  5
85
100
AcDbEntity
100
AcDbLine
  8
Cut insides
 62
256
370
-1
  6
BYLAYER
 10
4.9999999999999929
 20
14.775000000000006
 30
0.0
 11
9.7749999999999986
 21
14.775000000000006
 31
0.0
  0
LINE
  5
86
100
AcDbEntity
100
AcDbLine
  8
Cut insides
 62
256
370
-1
  6
BYLAYER
 10
9.7749999999999986
 20
14.775000000000006
 30
0.0
 11
9.7749999999999986
 21
5.0
 31
0.0
  0
LINE
  5
87
100
AcDbEntity
100
AcDbLine
  8
Cut insides
 62
256
370
-1
  6
BYLAYER
 10
9.7749999999999986
 20
5.0
 30
0.0
 11
4.9999999999999929
 21
5.0
 31
0.0
  0
LINE
  5
88
100
AcDbEntity
100
AcDbLine
  8
Cut insides
 62
256
370
-1
  6
BYLAYER
 10
4.9999999999999929
 20
5.0
 30
0.0
 11
4.9999999999999929
 21
14.775000000000006
 31
0.0
  0
LINE
  5
89
100
AcDbEntity
100
AcDbLine
  8
Cut insides
 62
256
370
-1
  6
BYLAYER
 10
50.774999999999984
 20
78.979187745203319
 30
0.0
 11
55.54999999999999
 21
78.979187745203319
 31
0.0
  0
LINE
  5
8A
100
AcDbEntity
100
AcDbLine
  8
Cut insides
 62
256
370
-1
  6
BYLAYER
 10
55.54999999999999
 20
78.979187745203319
 30
0.0
 11
55.54999999999999
 21
69.204187745203313
 31
0.0
  0
LINE
  5
8B
100
AcDbEntity
100
AcDbLine
  8
Cut insides
 62
256
370
-1
  6
BYLAYER
 10
55.54999999999999
 20
69.204187745203313
 30
0.0
 11
50.774999999999984
 21
69.204187745203313
 31
0.0
  0
LINE
  5
8C
100
AcDbEntity
100
AcDbLine
  8
Cut insides
 62
256
370
-1
  6
BYLAYER
 10
50.774999999999984
 20
69.204187745203313
 30
0.0
 11
50.774999999999984
 21
78.979187745203319
 31
0.0
  0
LINE
  5
8D
100
AcDbEntity
100
AcDbLine
  8
Cut insides
 62
256
370
-1
  6
BYLAYER
 10
50.774999999999984
 20
14.775000000000006
 30
0.0
 11
55.54999999999999
 21
14.775000000000006
 31
0.0
  0
LINE
  5
8E
100
AcDbEntity
100
AcDbLine
  8
Cut insides
 62
256
370
-1
  6
BYLAYER
 10
55.54999999999999
 20
14.775000000000006
 30
0.0
 11
55.54999999999999
 21
5.0
 31
0.0
  0
LINE
  5
8F
100
AcDbEntity
100
AcDbLine
  8
Cut insides
 62
256
370
-1
  6
BYLAYER
 10
55.54999999999999
 20
5.0
 30
0.0
 11
50.774999999999984
 21
5.0
 31
0.0
  0
LINE
  5
90
100
AcDbEntity
100
AcDbLine
  8
Cut insides
 62
256
370
-1
  6
BYLAYER
 10
50.774999999999984
 20
5.0
 30
0.0
 11
50.774999999999984
 21
14.775000000000006
 31
0.0
  0
LINE
  5
91
100
AcDbEntity
100
AcDbLine
  8
Cut outside
 62
256
370
-1
  6
BYLAYER
 10
60.54999999999999
 20
0.0000000000000002
 30
0.0
 11
-0.0000000000000071
 21
0.0000000000000002
 31
0.0
  0
LINE
  5
92
100
AcDbEntity
100
AcDbLine
  8
Cut outside
 62
256
370
-1
  6
BYLAYER
 10
-0.0000000000000071
 20
75.0
 30
0.0
 11
30.662973758168086
 21
80.406709582320673
 31
0.0
  0
LINE
  5
93
100
AcDbEntity
100
AcDbLine
  8
Cut outside
 62
256
370
-1
  6
BYLAYER
 10
30.662973758168086
 20
80.406709582320673
 30
0.0
 11
29.833803709808485
 21
85.109166602953977
 31
0.0
  0
LINE
  5
94
100
AcDbEntity
100
AcDbLine
  8
Cut outside
 62
256
370
-1
  6
BYLAYER
 10
29.833803709808485
 20
85.109166602953977
 30
0.0
 11
39.460299495502817
 21
86.806577539648217
 31
0.0
  0
LINE
  5
95
100
AcDbEntity
100
AcDbLine
  8
Cut outside
 62
256
370
-1
  6
BYLAYER
 10
39.460299495502817
 20
86.806577539648217
 30
0.0
 11
40.289469543862403
 21
82.104120519014927
 31
0.0
  0
LINE
  5
96
100
AcDbEntity
100
AcDbLine
  8
Cut outside
 62
256
370
-1
  6
BYLAYER
 10
40.289469543862403
 20
82.104120519014927
 30
0.0
 11
60.54999999999999
 21
85.676598681897559
 31
0.0
  0
LINE
  5
97
100
AcDbEntity
100
AcDbLine
  8
Cut outside
 62
256
370
-1
  6
BYLAYER
 10
60.54999999999999
 20
85.676598681897559
 30
0.0
 11
60.54999999999999
 21
0.0000000000000002
 31
0.0
  0
CIRCLE
  5
98
100
AcDbEntity
100
AcDbCircle
  8
Cut insides
 62
256
370
-1
  6
BYLAYER
 10
35.274999999998592
 20
65.824999999999392
 30
0.0
 40
1.2500000000076961
  0
CIRCLE
  5
99
100
AcDbEntity
100
AcDbCircle
  8
Cut insides
 62
256
370
-1
  6
BYLAYER
 10
45.274999999995337
 20
65.825000000000415
 30
0.0
 40
1.2500000000014619
  0
CIRCLE
  5
9A
100
AcDbEntity
100
AcDbCircle
  8
Cut insides
 62
256
370
-1
  6
BYLAYER
 10
35.274999999999999
 20
14.774999999996922
 30
0.0
 40
1.2499999999998082
  0
CIRCLE
  5
9B
100
AcDbEntity
100
AcDbCircle
  8
Cut insides
 62
256
370
-1
  6
BYLAYER
 10
45.274999999999999
 20
14.7749999999876
 30
0.0
 40
1.250000000000592
  0
LINE
  5
9C
100
AcDbEntity
100
AcDbLine
  8
Cut insides
 62
256
370
-1
  6
BYLAYER
 10
36.774999999997263
 20
19.775000000000006
 30
0.0
 11
29.774999999999984
 21
19.775000000000006
 31
0.0
  0
LINE
  5
9D
100
AcDbEntity
100
AcDbLine
  8
Cut insides
 62
256
370
-1
  6
BYLAYER
 10
36.77499999999727
 20
17.774999999999999
 30
0.0
 11
36.77499999999727
 21
19.774999999999999
 31
0.0
  0
LINE
  5
9E
100
AcDbEntity
100
AcDbLine
  8
Cut insides
 62
256
370
-1
  6
BYLAYER
 10
36.77499999999727
 20
17.774999999999999
 30
0.0
 11
38.274999999999999
 21
14.775
 31
0.0
  0
LINE
  5
9F
100
AcDbEntity
100
AcDbLine
  8
Cut insides
 62
256
370
-1
  6
BYLAYER
 10
38.274999999999999
 20
14.775
 30
0.0
 11
42.274999999999999
 21
14.775
 31
0.0
  0
LINE
  5
A0
100
AcDbEntity
100
AcDbLine
  8
Cut insides
 62
256
370
-1
  6
BYLAYER
 10
42.274999999999999
 20
14.775
 30
0.0
 11
43.774999999999885
 21
17.774999999999999
 31
0.0
  0
LINE
  5
A1
100
AcDbEntity
100
AcDbLine
  8
Cut insides
 62
256
370
-1
  6
BYLAYER
 10
43.774999999999885
 20
17.774999999999999
 30
0.0
 11
43.774999999999885
 21
19.774999999999999
 31
0.0
  0
LINE
  5
A2
100
AcDbEntity
100
AcDbLine
  8
Cut insides
 62
256
370
-1
  6
BYLAYER
 10
50.774999999999984
 20
19.775000000000006
 30
0.0
 11
43.774999999999892
 21
19.775000000000006
 31
0.0
  0
LINE
  5
A3
100
AcDbEntity
100
AcDbLine
  8
Cut insides
 62
256
370
-1
  6
BYLAYER
 10
50.774999999999984
 20
60.824999999999996
 30
0.0
 11
50.774999999999984
 21
19.775000000000006
 31
0.0
  0
LINE
  5
A4
100
AcDbEntity
100
AcDbLine
  8
Cut insides
 62
256
370
-1
  6
BYLAYER
 10
29.774999999999984
 20
60.824999999999996
 30
0.0
 11
50.774999999999984
 21
60.824999999999996
 31
0.0
  0
LINE
  5
A5
100
AcDbEntity
100
AcDbLine
  8
Cut insides
 62
256
370
-1
  6
BYLAYER
 10
29.774999999999984
 20
19.775000000000006
 30
0.0
 11
29.774999999999984
 21
60.824999999999996
 31
0.0
  0
LINE
  5
A6
100
AcDbEntity
100
AcDbLine
  8
Cut outside
 62
256
370
-1
  6
BYLAYER
 10
-0.0000000000000071
 20
0.0000000000000002
 30
0.0
 11
-0.0000000000000071
 21
56.4722033141013
 31
0.0
  0
ENDBLK
  5
A7
100
AcDbEntity
  8
0
100
AcDbBlockEnd
  0
BLOCK
  5
A8
100
AcDbEntity
  8
0
100
AcDbBlockBegin
  2
shovel-LetItCrash
 70
0
 10
0.0
 20
0.0
 30
0.0
  3
shovel-LetItCrash
  1

  0
INSERT
  5
A9
100
AcDbEntity
100
AcDbBlockReference
  8
0
 62
256
370
-1
  6
BYLAYER
  2
shovel-accessory
 10
0.0
 20
0.0
 30
0.0
  0
TEXT
  5
AA
100
AcDbEntity
100
AcDbText
  8
Engrave
 62
256
370
-1
  6
BYLAYER
 10
0.0
 20
0.0
 30
0.0
 40
8.0
  1
Let it Crash!
 50
0.0
 41
1.0
  7
textstyle6
 71
0
 72
1
 11
52.5
 21
35.0
 31
0.0
100
AcDbText
 73
2
  0
IMAGE
  5
AB
  8
Engrave
 62
256
370
-1
  6
BYLAYER
100
AcDbEntity
100
AcDbRasterImage
 90
0
 10
38.899999999999999
 20
4.0
 30
0.0
 11
0.08
 21
0.0
 31
0.0
 12
0.0
 22
0.08
 32
0.0
 13
27.0
 23
23.0
340
AC
 70
15
280
0
281
50
282
50
283
0
  0
ENDBLK
  5
AD
100
AcDbEntity
  8
0
100
AcDbBlockEnd
  0
BLOCK
  5
AE
100
AcDbEntity
  8
0
100
AcDbBlockBegin
  2
shovel-accessory
 70
0
 10
0.0
 20
0.0
 30
0.0
  3
shovel-accessory
  1

  0
INSERT
  5
AF
100
AcDbEntity
100
AcDbBlockReference
  8
0
 62
256
370
-1
  6
BYLAYER
  2
shovel-blank
 10
0.0
 20
0.0
 30
0.0
  0
LINE
  5
B0
100
AcDbEntity
100
AcDbLine
  8
Cut insides
 62
256
370
-1
  6
BYLAYER
 10
5.0011962414454274
 20
37.502844575293764
 30
0.0
 11
7.5012353522516833
 21
37.502844575293764
 31
0.0
  0
LINE
  5
B1
100
AcDbEntity
100
AcDbLine
  8
Cut insides
 62
256
370
-1
  6
BYLAYER
 10
7.5012353522516833
 20
37.502844575293764
 30
0.0
 11
7.5012353522516833
 21
40.002777846418759
 31
0.0
  0
LINE
  5
B2
100
AcDbEntity
100
AcDbLine
  8
Cut insides
 62
256
370
-1
  6
BYLAYER
 10
7.5012353522516833
 20
40.002777846418759
 30
0.0
 11
12.276298411526668
 21
40.002777846418759
 31
0.0
  0
LINE
  5
B3
100
AcDbEntity
100
AcDbLine
  8
Cut insides
 62
256
370
-1
  6
BYLAYER
 10
12.276298411526668
 20
40.002777846418759
 30
0.0
 11
12.276298411526668
 21
37.502844575293764
 31
0.0
  0
LINE
  5
B4
100
AcDbEntity
100
AcDbLine
  8
Cut insides
 62
256
370
-1
  6
BYLAYER
 10
12.276298411526668
 20
37.502844575293764
 30
0.0
 11
14.776196402757918
 21
37.502844575293764
 31
0.0
  0
LINE
  5
B5
100
AcDbEntity
100
AcDbLine
  8
Cut insides
 62
256
370
-1
  6
BYLAYER
 10
14.776196402757918
 20
37.502844575293764
 30
0.0
 11
14.776196402757918
 21
32.727710956231263
 31
0.0
  0
LINE
  5
B6
100
AcDbEntity
100
AcDbLine
  8
Cut insides
 62
256
370
-1
  6
BYLAYER
 10
14.776196402757918
 20
32.727710956231263
 30
0.0
 11
12.276298411526668
 21
32.727710956231263
 31
0.0
  0
LINE
  5
B7
100
AcDbEntity
100
AcDbLine
  8
Cut insides
 62
256
370
-1
  6
BYLAYER
 10
12.276298411526668
 20
32.727710956231263
 30
0.0
 11
12.276298411526668
 21
30.227777685106268
 31
0.0
  0
LINE
  5
B8
100
AcDbEntity
100
AcDbLine
  8
Cut insides
 62
256
370
-1
  6
BYLAYER
 10
12.276298411526668
 20
30.227777685106268
 30
0.0
 11
7.5012353522516833
 21
30.227777685106268
 31
0.0
  0
LINE
  5
B9
100
AcDbEntity
100
AcDbLine
  8
Cut insides
 62
256
370
-1
  6
BYLAYER
 10
7.5012353522516833
 20
30.227777685106268
 30
0.0
 11
7.5012353522516833
 21
32.727710956231263
 31
0.0
  0
LINE
  5
BA
100
AcDbEntity
100
AcDbLine
  8
Cut insides
 62
256
370
-1
  6
BYLAYER
 10
7.5012353522516833
 20
32.727710956231263
 30
0.0
 11
5.0011962414454274
 21
32.727710956231263
 31
0.0
  0
LINE
  5
BB
100
AcDbEntity
100
AcDbLine
  8
Cut insides
 62
256
370
-1
  6
BYLAYER
 10
5.0011962414454274
 20
32.727710956231263
 30
0.0
 11
5.0011962414454274
 21
37.502844575293764
 31
0.0
  0
LINE
  5
BC
100
AcDbEntity
100
AcDbLine
  8
Cut insides
 62
256
370
-1
  6
BYLAYER
 10
90.231139720357916
 20
37.502844575293764
 30
0.0
 11
92.731072991482932
 21
37.502844575293764
 31
0.0
  0
LINE
  5
BD
100
AcDbEntity
100
AcDbLine
  8
Cut insides
 62
256
370
-1
  6
BYLAYER
 10
92.731072991482932
 20
37.502844575293764
 30
0.0
 11
92.731072991482932
 21
40.002777846418759
 31
0.0
  0
LINE
  5
BE
100
AcDbEntity
100
AcDbLine
  8
Cut insides
 62
256
370
-1
  6
BYLAYER
 10
92.731072991482932
 20
40.002777846418759
 30
0.0
 11
97.506206610545433
 21
40.002777846418759
 31
0.0
  0
LINE
  5
BF
100
AcDbEntity
100
AcDbLine
  8
Cut insides
 62
256
370
-1
  6
BYLAYER
 10
97.506206610545433
 20
40.002777846418759
 30
0.0
 11
97.506206610545433
 21
37.502844575293764
 31
0.0
  0
LINE
  5
C0
100
AcDbEntity
100
AcDbLine
  8
Cut insides
 62
256
370
-1
  6
BYLAYER
 10
97.506206610545433
 20
37.502844575293764
 30
0.0
 11
100.00613988167044
 21
37.502844575293764
 31
0.0
  0
LINE
  5
C1
100
AcDbEntity
100
AcDbLine
  8
Cut insides
 62
256
370
-1
  6
BYLAYER
 10
100.00613988167044
 20
37.502844575293764
 30
0.0
 11
100.00613988167044
 21
32.727710956231263
 31
0.0
  0
LINE
  5
C2
100
AcDbEntity
100
AcDbLine
  8
Cut insides
 62
256
370
-1
  6
BYLAYER
 10
100.00613988167044
 20
32.727710956231263
 30
0.0
 11
97.506206610545433
 21
32.727710956231263
 31
0.0
  0
LINE
  5
C3
100
AcDbEntity
100
AcDbLine
  8
Cut insides
 62
256
370
-1
  6
BYLAYER
 10
97.506206610545433
 20
32.727710956231263
 30
0.0
 11
97.506206610545433
 21
30.227777685106268
 31
0.0
  0
LINE
  5
C4
100
AcDbEntity
100
AcDbLine
  8
Cut insides
 62
256
370
-1
  6
BYLAYER
 10
97.506206610545433
 20
30.227777685106268
 30
0.0
 11
92.731072991482932
 21
30.227777685106268
 31
0.0
  0
LINE
  5
C5
100
AcDbEntity
100
AcDbLine
  8
Cut insides
 62
256
370
-1
  6
BYLAYER
 10
92.731072991482932
 20
30.227777685106268
 30
0.0
 11
92.731072991482932
 21
32.727710956231263
 31
0.0
  0
LINE
  5
C6
100
AcDbEntity
100
AcDbLine
  8
Cut insides
 62
256
370
-1
  6
BYLAYER
 10
92.731072991482932
 20
32.727710956231263
 30
0.0
 11
90.231139720357916
 21
32.727710956231263
 31
0.0
  0
LINE
  5
C7
100
AcDbEntity
100
AcDbLine
  8
Cut insides
 62
256
370
-1
  6
BYLAYER
 10
90.231139720357916
 20
32.727710956231263
 30
0.0
 11
90.231139720357916
 21
37.502844575293764
 31
0.0
  0
ENDBLK
  5
C8
100
AcDbEntity
  8
0
100
AcDbBlockEnd
  0
BLOCK
  5
C9
100
AcDbEntity
  8
0
100
AcDbBlockBegin
  2
original-side
 70
0
 10
0.0
 20
0.0
 30
0.0
  3
original-side
  1

  0
LINE
  5
CA
100
AcDbEntity
100
AcDbLine
  8
Cut outside
 62
256
370
-1
  6
BYLAYER
 10
4.9999999999999929
 20
70.0
 30
0.0
 11
9.7749999999999986
 21
70.0
 31
0.0
  0
LINE
  5
CB
100
AcDbEntity
100
AcDbLine
  8
Cut outside
 62
256
370
-1
  6
BYLAYER
 10
9.7749999999999986
 20
70.0
 30
0.0
 11
9.7749999999999986
 21
60.225000000000001
 31
0.0
  0
LINE
  5
CC
100
AcDbEntity
100
AcDbLine
  8
Cut outside
 62
256
370
-1
  6
BYLAYER
 10
9.7749999999999986
 20
60.225000000000001
 30
0.0
 11
4.9999999999999929
 21
60.225000000000001
 31
0.0
  0
LINE
  5
CD
100
AcDbEntity
100
AcDbLine
  8
Cut outside
 62
256
370
-1
  6
BYLAYER
 10
4.9999999999999929
 20
60.225000000000001
 30
0.0
 11
4.9999999999999929
 21
70.0
 31
0.0
  0
LINE
  5
CE
100
AcDbEntity
100
AcDbLine
  8
Cut outside
 62
256
370
-1
  6
BYLAYER
 10
4.9999999999999929
 20
14.775000000000006
 30
0.0
 11
9.7749999999999986
 21
14.775000000000006
 31
0.0
  0
LINE
  5
CF
100
AcDbEntity
100
AcDbLine
  8
Cut outside
 62
256
370
-1
  6
BYLAYER
 10
9.7749999999999986
 20
14.775000000000006
 30
0.0
 11
9.7749999999999986
 21
5.0
 31
0.0
  0
LINE
  5
D0
100
AcDbEntity
100
AcDbLine
  8
Cut outside
 62
256
370
-1
  6
BYLAYER
 10
9.7749999999999986
 20
5.0
 30
0.0
 11
4.9999999999999929
 21
5.0
 31
0.0
  0
LINE
  5
D1
100
AcDbEntity
100
AcDbLine
  8
Cut outside
 62
256
370
-1
  6
BYLAYER
 10
4.9999999999999929
 20
5.0
 30
0.0
 11
4.9999999999999929
 21
14.775000000000006
 31
0.0
  0
LINE
  5
D2
100
AcDbEntity
100
AcDbLine
  8
Cut outside
 62
256
370
-1
  6
BYLAYER
 10
50.774999999999984
 20
78.979187745203319
 30
0.0
 11
55.54999999999999
 21
78.979187745203319
 31
0.0
  0
LINE
  5
D3
100
AcDbEntity
100
AcDbLine
  8
Cut outside
 62
256
370
-1
  6
BYLAYER
 10
55.54999999999999
 20
78.979187745203319
 30
0.0
 11
55.54999999999999
 21
69.204187745203313
 31
0.0
  0
LINE
  5
D4
100
AcDbEntity
100
AcDbLine
  8
Cut outside
 62
256
370
-1
  6
BYLAYER
 10
55.54999999999999
 20
69.204187745203313
 30
0.0
 11
50.774999999999984
 21
69.204187745203313
 31
0.0
  0
LINE
  5
D5
100
AcDbEntity
100
AcDbLine
  8
Cut outside
 62
256
370
-1
  6
BYLAYER
 10
50.774999999999984
 20
69.204187745203313
 30
0.0
 11
50.774999999999984
 21
78.979187745203319
 31
0.0
  0
LINE
  5
D6
100
AcDbEntity
100
AcDbLine
  8
Cut outside
 62
256
370
-1
  6
BYLAYER
 10
50.774999999999984
 20
14.775000000000006
 30
0.0
 11
55.54999999999999
 21
14.775000000000006
 31
0.0
  0
LINE
  5
D7
100
AcDbEntity
100
AcDbLine
  8
Cut outside
 62
256
370
-1
  6
BYLAYER
 10
55.54999999999999
 20
14.775000000000006
 30
0.0
 11
55.54999999999999
 21
5.0
 31
0.0
  0
LINE
  5
D8
100
AcDbEntity
100
AcDbLine
  8
Cut outside
 62
256
370
-1
  6
BYLAYER
 10
55.54999999999999
 20
5.0
 30
0.0
 11
50.774999999999984
 21
5.0
 31
0.0
  0
LINE
  5
D9
100
AcDbEntity
100
AcDbLine
  8
Cut outside
 62
256
370
-1
  6
BYLAYER
 10
50.774999999999984
 20
5.0
 30
0.0
 11
50.774999999999984
 21
14.775000000000006
 31
0.0
  0
LINE
  5
DA
100
AcDbEntity
100
AcDbLine
  8
Cut outside
 62
256
370
-1
  6
BYLAYER
 10
60.54999999999999
 20
0.0000000000000002
 30
0.0
 11
-0.0000000000000071
 21
0.0000000000000002
 31
0.0
  0
LINE
  5
DB
100
AcDbEntity
100
AcDbLine
  8
Cut outside
 62
256
370
-1
  6
BYLAYER
 10
-0.0000000000000071
 20
0.0000000000000002
 30
0.0
 11
-0.0000000000000071
 21
75.0
 31
0.0
  0
LINE
  5
DC
100
AcDbEntity
100
AcDbLine
  8
Cut outside
 62
256
370
-1
  6
BYLAYER
 10
-0.0000000000000071
 20
75.0
 30
0.0
 11
30.662973758168086
 21
80.406709582320673
 31
0.0
  0
LINE
  5
DD
100
AcDbEntity
100
AcDbLine
  8
Cut outside
 62
256
370
-1
  6
BYLAYER
 10
30.662973758168086
 20
80.406709582320673
 30
0.0
 11
29.833803709808485
 21
85.109166602953977
 31
0.0
  0
LINE
  5
DE
100
AcDbEntity
100
AcDbLine
  8
Cut outside
 62
256
370
-1
  6
BYLAYER
 10
29.833803709808485
 20
85.109166602953977
 30
0.0
 11
39.460299495502817
 21
86.806577539648217
 31
0.0
  0
LINE
  5
DF
100
AcDbEntity
100
AcDbLine
  8
Cut outside
 62
256
370
-1
  6
BYLAYER
 10
39.460299495502817
 20
86.806577539648217
 30
0.0
 11
40.289469543862403
 21
82.104120519014927
 31
0.0
  0
LINE
  5
E0
100
AcDbEntity
100
AcDbLine
  8
Cut outside
 62
256
370
-1
  6
BYLAYER
 10
40.289469543862403
 20
82.104120519014927
 30
0.0
 11
60.54999999999999
 21
85.676598681897559
 31
0.0
  0
LINE
  5
E1
100
AcDbEntity
100
AcDbLine
  8
Cut outside
 62
256
370
-1
  6
BYLAYER
 10
60.54999999999999
 20
85.676598681897559
 30
0.0
 11
60.54999999999999
 21
0.0000000000000002
 31
0.0
  0
CIRCLE
  5
E2
100
AcDbEntity
100
AcDbCircle
  8
Cut outside
 62
256
370
-1
  6
BYLAYER
 10
35.274999999998592
 20
65.824999999999392
 30
0.0
 40
1.2500000000076961
  0
CIRCLE
  5
E3
100
AcDbEntity
100
AcDbCircle
  8
Cut outside
 62
256
370
-1
  6
BYLAYER
 10
45.274999999995337
 20
65.825000000000415
 30
0.0
 40
1.2500000000014619
  0
CIRCLE
  5
E4
100
AcDbEntity
100
AcDbCircle
  8
Cut outside
 62
256
370
-1
  6
BYLAYER
 10
35.274999999999999
 20
14.774999999996922
 30
0.0
 40
1.2499999999998082
  0
CIRCLE
  5
E5
100
AcDbEntity
100
AcDbCircle
  8
Cut outside
 62
256
370
-1
  6
BYLAYER
 10
45.274999999999999
 20
14.7749999999876
 30
0.0
 40
1.250000000000592
  0
LINE
  5
E6
100
AcDbEntity
100
AcDbLine
  8
Cut outside
 62
256
370
-1
  6
BYLAYER
 10
36.774999999997263
 20
19.775000000000006
 30
0.0
 11
29.774999999999984
 21
19.775000000000006
 31
0.0
  0
LINE
  5
E7
100
AcDbEntity
100
AcDbLine
  8
Cut outside
 62
256
370
-1
  6
BYLAYER
 10
36.77499999999727
 20
17.774999999999999
 30
0.0
 11
36.77499999999727
 21
19.774999999999999
 31
0.0
  0
LINE
  5
E8
100
AcDbEntity
100
AcDbLine
  8
Cut outside
 62
256
370
-1
  6
BYLAYER
 10
36.77499999999727
 20
17.774999999999999
 30
0.0
 11
38.274999999999999
 21
14.775
 31
0.0
  0
LINE
  5
E9
100
AcDbEntity
100
AcDbLine
  8
Cut outside
 62
256
370
-1
  6
BYLAYER
 10
38.274999999999999
 20
14.775
 30
0.0
 11
42.274999999999999
 21
14.775
 31
0.0
  0
LINE
  5
EA
100
AcDbEntity
100
AcDbLine
  8
Cut outside
 62
256
370
-1
  6
BYLAYER
 10
42.274999999999999
 20
14.775
 30
0.0
 11
43.774999999999885
 21
17.774999999999999
 31
0.0
  0
LINE
  5
EB
100
AcDbEntity
100
AcDbLine
  8
Cut outside
 62
256
370
-1
  6
BYLAYER
 10
43.774999999999885
 20
17.774999999999999
 30
0.0
 11
43.774999999999885
 21
19.774999999999999
 31
0.0
  0
LINE
  5
EC
100
AcDbEntity
100
AcDbLine
  8
Cut outside
 62
256
370
-1
  6
BYLAYER
 10
50.774999999999984
 20
19.775000000000006
 30
0.0
 11
43.774999999999892
 21
19.775000000000006
 31
0.0
  0
LINE
  5
ED
100
AcDbEntity
100
AcDbLine
  8
Cut outside
 62
256
370
-1
  6
BYLAYER
 10
50.774999999999984
 20
60.824999999999996
 30
0.0
 11
50.774999999999984
 21
19.775000000000006
 31
0.0
  0
LINE
  5
EE
100
AcDbEntity
100
AcDbLine
  8
Cut outside
 62
256
370
-1
  6
BYLAYER
 10
29.774999999999984
 20
60.824999999999996
 30
0.0
 11
50.774999999999984
 21
60.824999999999996
 31
0.0
  0
LINE
  5
EF
100
AcDbEntity
100
AcDbLine
  8
Cut outside
 62
256
370
-1
  6
BYLAYER
 10
29.774999999999984
 20
19.775000000000006
 30
0.0
 11
29.774999999999984
 21
60.824999999999996
 31
0.0
  0
ENDBLK
  5
F0
100
AcDbEntity
  8
0
100
AcDbBlockEnd
  0
BLOCK
  5
F1
100
AcDbEntity
  8
0
100
AcDbBlockBegin
  2
wheel
 70
0
 10
0.0
 20
0.0
 30
0.0
  3
wheel
  1

  0
CIRCLE
  5
F2
100
AcDbEntity
100
AcDbCircle
  8
Cut outside
 62
256
370
-1
  6
BYLAYER
 10
0.0
 20
0.0
 30
0.0
 40
35.0
  0
CIRCLE
  5
F3
100
AcDbEntity
100
AcDbCircle
  8
Cut insides
 62
256
370
-1
  6
BYLAYER
 10
0.0
 20
0.0
 30
0.0
 40
2.5
  0
CIRCLE
  5
F4
100
AcDbEntity
100
AcDbCircle
  8
Cut insides
 62
256
370
-1
  6
BYLAYER
 10
0.0
 20
-10.0
 30
0.0
 40
1.25
  0
CIRCLE
  5
F5
100
AcDbEntity
100
AcDbCircle
  8
Cut insides
 62
256
370
-1
  6
BYLAYER
 10
0.0
 20
10.0
 30
0.0
 40
1.25
  0
ENDBLK
  5
F6
100
AcDbEntity
  8
0
100
AcDbBlockEnd
  0
BLOCK
  5
F7
100
AcDbEntity
  8
0
100
AcDbBlockBegin
  2
bottom
 70
0
 10
0.0
 20
0.0
 30
0.0
  3
bottom
  1

  0
LINE
  5
F8
100
AcDbEntity
100
AcDbLine
  8
Cut outside
 62
256
370
-1
  6
BYLAYER
 10
0.0000000000000142
 20
83.103553722812521
 30
0.0
 11
60.004678328087508
 21
83.103553722812521
 31
0.0
  0
LINE
  5
F9
100
AcDbEntity
100
AcDbLine
  8
Cut outside
 62
256
370
-1
  6
BYLAYER
 10
60.004678328087508
 20
83.103553722812521
 30
0.0
 11
60.004678328087508
 21
78.102275984812508
 31
0.0
  0
LINE
  5
FA
100
AcDbEntity
100
AcDbLine
  8
Cut outside
 62
256
370
-1
  6
BYLAYER
 10
60.004678328087508
 20
78.102275984812508
 30
0.0
 11
64.779811947149994
 21
78.102275984812508
 31
0.0
  0
LINE
  5
FB
100
AcDbEntity
100
AcDbLine
  8
Cut outside
 62
256
370
-1
  6
BYLAYER
 10
64.779811947149994
 20
78.102275984812508
 30
0.0
 11
64.779811947149994
 21
68.327275823500003
 31
0.0
  0
LINE
  5
FC
100
AcDbEntity
100
AcDbLine
  8
Cut outside
 62
256
370
-1
  6
BYLAYER
 10
64.779811947149994
 20
68.327275823500003
 30
0.0
 11
60.004678328087508
 21
68.327275823500003
 31
0.0
  0
LINE
  5
FD
100
AcDbEntity
100
AcDbLine
  8
Cut outside
 62
256
370
-1
  6
BYLAYER
 10
60.004678328087508
 20
68.327275823500003
 30
0.0
 11
60.004678328087508
 21
14.776277899312507
 31
0.0
  0
LINE
  5
FE
100
AcDbEntity
100
AcDbLine
  8
Cut outside
 62
256
370
-1
  6
BYLAYER
 10
60.004678328087508
 20
14.776277899312507
 30
0.0
 11
64.779811947149994
 21
14.776277899312507
 31
0.0
  0
LINE
  5
FF
100
AcDbEntity
100
AcDbLine
  8
Cut outside
 62
256
370
-1
  6
BYLAYER
 10
64.779811947149994
 20
14.776277899312507
 30
0.0
 11
64.779811947149994
 21
5.001277738000006
 31
0.0
  0
LINE
  5
100
100
AcDbEntity
100
AcDbLine
  8
Cut outside
 62
256
370
-1
  6
BYLAYER
 10
64.779811947149994
 20
5.001277738000006
 30
0.0
 11
60.004678328087508
 21
5.001277738000006
 31
0.0
  0
LINE
  5
101
100
AcDbEntity
100
AcDbLine
  8
Cut outside
 62
256
370
-1
  6
BYLAYER
 10
60.004678328087508
 20
5.001277738000006
 30
0.0
 11
60.004678328087508
 21
0.0
 31
0.0
  0
LINE
  5
102
100
AcDbEntity
100
AcDbLine
  8
Cut outside
 62
256
370
-1
  6
BYLAYER
 10
60.004678328087508
 20
0.0
 30
0.0
 11
0.0000000000000142
 21
0.0
 31
0.0
  0
LINE
  5
103
100
AcDbEntity
100
AcDbLine
  8
Cut outside
 62
256
370
-1
  6
BYLAYER
 10
0.0000000000000142
 20
0.0
 30
0.0
 11
0.0000000000000142
 21
5.001277738000006
 31
0.0
  0
LINE
  5
104
100
AcDbEntity
100
AcDbLine
  8
Cut outside
 62
256
370
-1
  6
BYLAYER
 10
0.0000000000000142
 20
5.001277738000006
 30
0.0
 11
-4.7751932420829348
 21
5.001277738000006
 31
0.0
  0
LINE
  5
105
100
AcDbEntity
100
AcDbLine
  8
Cut outside
 62
256
370
-1
  6
BYLAYER
 10
-4.7751932420829348
 20
5.001277738000006
 30
0.0
 11
-4.7751932420829348
 21
14.776277899312507
 31
0.0
  0
LINE
  5
106
100
AcDbEntity
100
AcDbLine
  8
Cut outside
 62
256
370
-1
  6
BYLAYER
 10
-4.7751932420829348
 20
14.776277899312507
 30
0.0
 11
0.0000000000000142
 21
14.776277899312507
 31
0.0
  0
LINE
  5
107
100
AcDbEntity
100
AcDbLine
  8
Cut outside
 62
256
370
-1
  6
BYLAYER
 10
0.0000000000000142
 20
14.776277899312507
 30
0.0
 11
0.0000000000000142
 21
68.327275823500003
 31
0.0
  0
LINE
  5
108
100
AcDbEntity
100
AcDbLine
  8
Cut outside
 62
256
370
-1
  6
BYLAYER
 10
0.0000000000000142
 20
68.327275823500003
 30
0.0
 11
-4.7751932420829348
 21
68.327275823500003
 31
0.0
  0
LINE
  5
109
100
AcDbEntity
100
AcDbLine
  8
Cut outside
 62
256
370
-1
  6
BYLAYER
 10
-4.7751932420829348
 20
68.327275823500003
 30
0.0
 11
-4.7751932420829348
 21
78.102275984812508
 31
0.0
  0
LINE
  5
10A
100
AcDbEntity
100
AcDbLine
  8
Cut outside
 62
256
370
-1
  6
BYLAYER
 10
-4.7751932420829348
 20
78.102275984812508
 30
0.0
 11
0.0000000000000142
 21
78.102275984812508
 31
0.0
  0
LINE
  5
10B
100
AcDbEntity
100
AcDbLine
  8
Cut outside
 62
256
370
-1
  6
BYLAYER
 10
0.0000000000000142
 20
78.102275984812508
 30
0.0
 11
0.0000000000000142
 21
83.103553722812521
 31
0.0
  0
LINE
  5
10C
100
AcDbEntity
100
AcDbLine
  8
Cut insides
 62
256
370
-1
  6
BYLAYER
 10
5.0012071782125105
 20
60.828887205875006
 30
0.0
 11
10.001038440568749
 21
60.828887205875006
 31
0.0
  0
LINE
  5
10D
100
AcDbEntity
100
AcDbLine
  8
Cut insides
 62
256
370
-1
  6
BYLAYER
 10
10.001038440568749
 20
60.828887205875006
 30
0.0
 11
10.001038440568749
 21
63.328936900649389
 31
0.0
  0
LINE
  5
10E
100
AcDbEntity
100
AcDbLine
  8
Cut insides
 62
256
370
-1
  6
BYLAYER
 10
10.001038440568749
 20
63.328936900649389
 30
0.0
 11
5.0012071782125105
 21
63.328936900649389
 31
0.0
  0
LINE
  5
10F
100
AcDbEntity
100
AcDbLine
  8
Cut insides
 62
256
370
-1
  6
BYLAYER
 10
5.0012071782125105
 20
63.328936900649389
 30
0.0
 11
5.0012071782125105
 21
60.828887205875006
 31
0.0
  0
LINE
  5
110
100
AcDbEntity
100
AcDbLine
  8
Cut insides
 62
256
370
-1
  6
BYLAYER
 10
5.0012071782125105
 20
60.828887205875006
 30
0.0
 11
5.0012071782125105
 21
60.828887205875006
 31
0.0
  0
LINE
  5
111
100
AcDbEntity
100
AcDbLine
  8
Cut insides
 62
256
370
-1
  6
BYLAYER
 10
50.003886846775004
 20
60.828887205875006
 30
0.0
 11
55.003718109131256
 21
60.828887205875006
 31
0.0
  0
LINE
  5
112
100
AcDbEntity
100
AcDbLine
  8
Cut insides
 62
256
370
-1
  6
BYLAYER
 10
55.003718109131256
 20
60.828887205875006
 30
0.0
 11
55.003718109131256
 21
63.328936900649389
 31
0.0
  0
LINE
  5
113
100
AcDbEntity
100
AcDbLine
  8
Cut insides
 62
256
370
-1
  6
BYLAYER
 10
55.003718109131256
 20
63.328936900649389
 30
0.0
 11
50.003886846775004
 21
63.328936900649389
 31
0.0
  0
LINE
  5
114
100
AcDbEntity
100
AcDbLine
  8
Cut insides
 62
256
370
-1
  6
BYLAYER
 10
50.003886846775004
 20
63.328936900649389
 30
0.0
 11
50.003886846775004
 21
60.828887205875006
 31
0.0
  0
LINE
  5
115
100
AcDbEntity
100
AcDbLine
  8
Cut insides
 62
256
370
-1
  6
BYLAYER
 10
50.003886846775004
 20
60.828887205875006
 30
0.0
 11
50.003886846775004
 21
60.828887205875006
 31
0.0
  0
LINE
  5
116
100
AcDbEntity
100
AcDbLine
  8
Cut insides
 62
256
370
-1
  6
BYLAYER
 10
5.0012071782125105
 20
17.276211170437517
 30
0.0
 11
10.001038440568749
 21
17.276211170437517
 31
0.0
  0
LINE
  5
117
100
AcDbEntity
100
AcDbLine
  8
Cut insides
 62
256
370
-1
  6
BYLAYER
 10
10.001038440568749
 20
17.276211170437517
 30
0.0
 11
10.001038440568749
 21
19.776123273626258
 31
0.0
  0
LINE
  5
118
100
AcDbEntity
100
AcDbLine
  8
Cut insides
 62
256
370
-1
  6
BYLAYER
 10
10.001038440568749
 20
19.776123273626258
 30
0.0
 11
5.0012071782125105
 21
19.776123273626258
 31
0.0
  0
LINE
  5
119
100
AcDbEntity
100
AcDbLine
  8
Cut insides
 62
256
370
-1
  6
BYLAYER
 10
5.0012071782125105
 20
19.776123273626258
 30
0.0
 11
5.0012071782125105
 21
17.276211170437517
 31
0.0
  0
LINE
  5
11A
100
AcDbEntity
100
AcDbLine
  8
Cut insides
 62
256
370
-1
  6
BYLAYER
 10
5.0012071782125105
 20
17.276211170437517
 30
0.0
 11
5.0012071782125105
 21
17.276211170437517
 31
0.0
  0
LINE
  5
11B
100
AcDbEntity
100
AcDbLine
  8
Cut insides
 62
256
370
-1
  6
BYLAYER
 10
50.003886846775004
 20
17.276211170437517
 30
0.0
 11
55.003718109131256
 21
17.276211170437517
 31
0.0
  0
LINE
  5
11C
100
AcDbEntity
100
AcDbLine
  8
Cut insides
 62
256
370
-1
  6
BYLAYER
 10
55.003718109131256
 20
17.276211170437517
 30
0.0
 11
55.003718109131256
 21
19.776123273626258
 31
0.0
  0
LINE
  5
11D
100
AcDbEntity
100
AcDbLine
  8
Cut insides
 62
256
370
-1
  6
BYLAYER
 10
55.003718109131256
 20
19.776123273626258
 30
0.0
 11
50.003886846775004
 21
19.776123273626258
 31
0.0
  0
LINE
  5
11E
100
AcDbEntity
100
AcDbLine
  8
Cut insides
 62
256
370
-1
  6
BYLAYER
 10
50.003886846775004
 20
19.776123273626258
 30
0.0
 11
50.003886846775004
 21
17.276211170437517
 31
0.0
  0
LINE
  5
11F
100
AcDbEntity
100
AcDbLine
  8
Cut insides
 62
256
370
-1
  6
BYLAYER
 10
50.003886846775004
 20
17.276211170437517
 30
0.0
 11
50.003886846775004
 21
17.276211170437517
 31
0.0
  0
LINE
  5
120
100
AcDbEntity
100
AcDbLine
  8
Engrave
 62
256
370
50
  6
BYLAYER
 10
30.00308004181251
 20
38.42227388631251
 30
0.0
 11
30.00308004181251
 21
44.681632635437516
 31
0.0
  0
LINE
  5
121
100
AcDbEntity
100
AcDbLine
  8
Engrave
 62
256
370
50
  6
BYLAYER
 10
32.833868156525007
 20
42.001066308312517
 30
0.0
 11
30.003080041812503
 21
44.681632635437516
 31
0.0
  0
LINE
  5
122
100
AcDbEntity
100
AcDbLine
  8
Engrave
 62
256
370
50
  6
BYLAYER
 10
30.003080041812503
 20
44.681632635437516
 30
0.0
 11
27.171021850925001
 21
42.001066308312517
 31
0.0
  0
LINE
  5
123
100
AcDbEntity
100
AcDbLine
  8
Cut outside
 62
256
370
-1
  6
BYLAYER
 10
30.003080041812503
 20
38.42227388631251
 30
0.0
 11
30.00308004181251
 21
38.42227388631251
 31
0.0
  0
LINE
  5
124
100
AcDbEntity
100
AcDbLine
  8
Cut outside
 62
256
370
-1
  6
BYLAYER
 10
30.003080041812503
 20
38.42227388631251
 30
0.0
 11
30.00308004181251
 21
38.42227388631251
 31
0.0
  0
CIRCLE
  5
125
100
AcDbEntity
100
AcDbCircle
  8
Cut insides
 62
256
370
-1
  6
BYLAYER
 10
17.5
 20
68.0
 30
0.0
 40
1.25
  0
CIRCLE
  5
126
100
AcDbEntity
100
AcDbCircle
  8
Cut insides
 62
256
370
-1
  6
BYLAYER
 10
42.5
 20
68.0
 30
0.0
 40
1.25
  0
ENDBLK
  5
127
100
AcDbEntity
  8
0
100
AcDbBlockEnd
  0
BLOCK
  5
128
100
AcDbEntity
  8
0
100
AcDbBlockBegin
  2
camera_holder
 70
0
 10
0.0
 20
0.0
 30
0.0
  3
camera_holder
  1

  0
LINE
  5
129
100
AcDbEntity
100
AcDbLine
  8
Cut outside
 62
256
370
-1
  6
BYLAYER
 10
69.555000000000007
 20
0.0
 30
0.0
 11
69.555000000000007
 21
9.7750000000000004
 31
0.0
  0
LINE
  5
12A
100
AcDbEntity
100
AcDbLine
  8
Cut outside
 62
256
370
-1
  6
BYLAYER
 10
0.0
 20
9.7750000000000004
 30
0.0
 11
0.0
 21
0.0
 31
0.0
  0
LINE
  5
12B
100
AcDbEntity
100
AcDbLine
  8
Cut outside
 62
256
370
-1
  6
BYLAYER
 10
4.7750000000000004
 20
-4.9999999999999991
 30
0.0
 11
9.5500000000000007
 21
-4.9999999999999991
 31
0.0
  0
LINE
  5
12C
100
AcDbEntity
100
AcDbLine
  8
Cut outside
 62
256
370
-1
  6
BYLAYER
 10
9.5500000000000007
 20
14.774999999999999
 30
0.0
 11
4.7750000000000004
 21
14.774999999999999
 31
0.0
  0
LINE
  5
12D
100
AcDbEntity
100
AcDbLine
  8
Cut outside
 62
256
370
-1
  6
BYLAYER
 10
60.004999999999995
 20
-4.9999999999999991
 30
0.0
 11
64.780000000000001
 21
-4.9999999999999991
 31
0.0
  0
LINE
  5
12E
100
AcDbEntity
100
AcDbLine
  8
Cut outside
 62
256
370
-1
  6
BYLAYER
 10
64.780000000000001
 20
14.774999999999999
 30
0.0
 11
60.004999999999995
 21
14.774999999999999
 31
0.0
  0
ARC
  5
12F
100
AcDbEntity
  8
Cut outside
 62
256
370
-1
  6
BYLAYER
100
AcDbCircle
 10
14.550000000000002
 20
14.775
 30
0.0
 40
5.0
100
AcDbArc
 50
180.0
 51
270.00000000000011
  0
ARC
  5
130
100
AcDbEntity
  8
Cut outside
 62
256
370
-1
  6
BYLAYER
100
AcDbCircle
 10
14.550000000000002
 20
-5.0
 30
0.0
 40
5.0
100
AcDbArc
 50
90.000000000000014
 51
180.0
  0
ARC
  5
131
100
AcDbEntity
  8
Cut outside
 62
256
370
-1
  6
BYLAYER
100
AcDbCircle
 10
55.004999999999995
 20
-5.0
 30
0.0
 40
5.0
100
AcDbArc
 50
0.0
 51
90.0
  0
ARC
  5
132
100
AcDbEntity
  8
Cut outside
 62
256
370
-1
  6
BYLAYER
100
AcDbCircle
 10
55.004999999999995
 20
14.775
 30
0.0
 40
5.0
100
AcDbArc
 50
270.0
 51
0.0
  0
INSERT
  5
133
100
AcDbEntity
100
AcDbBlockReference
  8
Cut outside
 62
256
370
-1
  6
BYLAYER
  2
picamera
 10
22.2775
 20
9.7750000000000004
 30
0.0
  0
LINE
  5
134
100
AcDbEntity
100
AcDbLine
  8
Cut outside
 62
256
370
-1
  6
BYLAYER
 10
23.2775
 20
27.024999999999999
 30
0.0
 11
18.2775
 21
27.024999999999999
 31
0.0
  0
LINE
  5
135
100
AcDbEntity
100
AcDbLine
  8
Cut outside
 62
256
370
-1
  6
BYLAYER
 10
18.2775
 20
27.024999999999999
 30
0.0
 11
18.2775
 21
9.7750000000000004
 31
0.0
  0
LINE
  5
136
100
AcDbEntity
100
AcDbLine
  8
Cut outside
 62
256
370
-1
  6
BYLAYER
 10
51.277500000000003
 20
9.7750000000000004
 30
0.0
 11
51.277500000000003
 21
27.024999999999999
 31
0.0
  0
LINE
  5
137
100
AcDbEntity
100
AcDbLine
  8
Cut outside
 62
256
370
-1
  6
BYLAYER
 10
51.277500000000003
 20
27.024999999999999
 30
0.0
 11
46.277500000000003
 21
27.024999999999999
 31
0.0
  0
LINE
  5
138
100
AcDbEntity
100
AcDbLine
  8
Cut outside
 62
256
370
-1
  6
BYLAYER
 10
27.0275
 20
21.024999999999999
 30
0.0
 11
27.0275
 21
27.024999999999999
 31
0.0
  0
LINE
  5
139
100
AcDbEntity
100
AcDbLine
  8
Cut outside
 62
256
370
-1
  6
BYLAYER
 10
27.0275
 20
27.024999999999999
 30
0.0
 11
18.2775
 21
27.024999999999999
 31
0.0
  0
LINE
  5
13A
100
AcDbEntity
100
AcDbLine
  8
Cut outside
 62
256
370
-1
  6
BYLAYER
 10
18.2775
 20
27.024999999999999
 30
0.0
 11
18.2775
 21
21.024999999999999
 31
0.0
  0
LINE
  5
13B
100
AcDbEntity
100
AcDbLine
  8
Cut outside
 62
256
370
-1
  6
BYLAYER
 10
51.277499999999996
 20
21.024999999999999
 30
0.0
 11
51.277499999999996
 21
27.024999999999999
 31
0.0
  0
LINE
  5
13C
100
AcDbEntity
100
AcDbLine
  8
Cut outside
 62
256
370
-1
  6
BYLAYER
 10
51.277499999999996
 20
27.024999999999999
 30
0.0
 11
42.527499999999996
 21
27.024999999999999
 31
0.0
  0
LINE
  5
13D
100
AcDbEntity
100
AcDbLine
  8
Cut outside
 62
256
370
-1
  6
BYLAYER
 10
42.527499999999996
 20
27.024999999999999
 30
0.0
 11
42.527499999999996
 21
21.024999999999999
 31
0.0
  0
LINE
  5
13E
100
AcDbEntity
100
AcDbLine
  8
Cut outside
 62
256
370
-1
  6
BYLAYER
 10
4.7750000000000004
 20
14.774999999999999
 30
0.0
 11
4.7750000000000004
 21
9.7750000000000004
 31
0.0
  0
LINE
  5
13F
100
AcDbEntity
100
AcDbLine
  8
Cut outside
 62
256
370
-1
  6
BYLAYER
 10
4.7750000000000004
 20
0.0
 30
0.0
 11
4.7750000000000004
 21
-4.9999999999999991
 31
0.0
  0
LINE
  5
140
100
AcDbEntity
100
AcDbLine
  8
Cut outside
 62
256
370
-1
  6
BYLAYER
 10
4.7750000000000057
 20
9.7750000000000004
 30
0.0
 11
0.0
 21
9.7750000000000004
 31
0.0
  0
LINE
  5
141
100
AcDbEntity
100
AcDbLine
  8
Cut outside
 62
256
370
-1
  6
BYLAYER
 10
0.0
 20
0.0
 30
0.0
 11
4.7750000000000004
 21
0.0
 31
0.0
  0
LINE
  5
142
100
AcDbEntity
100
AcDbLine
  8
Cut outside
 62
256
370
-1
  6
BYLAYER
 10
14.550000000000001
 20
0.0
 30
0.0
 11
55.004999999999995
 21
0.0
 31
0.0
  0
LINE
  5
143
100
AcDbEntity
100
AcDbLine
  8
Cut outside
 62
256
370
-1
  6
BYLAYER
 10
64.780000000000001
 20
0.0
 30
0.0
 11
69.555000000000007
 21
0.0
 31
0.0
  0
LINE
  5
144
100
AcDbEntity
100
AcDbLine
  8
Cut outside
 62
256
370
-1
  6
BYLAYER
 10
69.555000000000007
 20
9.7750000000000004
 30
0.0
 11
64.780000000000015
 21
9.7750000000000004
 31
0.0
  0
LINE
  5
145
100
AcDbEntity
100
AcDbLine
  8
Cut outside
 62
256
370
-1
  6
BYLAYER
 10
64.780000000000001
 20
-4.9999999999999991
 30
0.0
 11
64.780000000000001
 21
0.0
 31
0.0
  0
LINE
  5
146
100
AcDbEntity
100
AcDbLine
  8
Cut outside
 62
256
370
-1
  6
BYLAYER
 10
64.780000000000001
 20
9.7749999999999986
 30
0.0
 11
64.780000000000001
 21
14.774999999999999
 31
0.0
  0
LINE
  5
147
100
AcDbEntity
100
AcDbLine
  8
Cut outside
 62
256
370
-1
  6
BYLAYER
 10
55.004999999999995
 20
9.7750000000000004
 30
0.0
 11
51.277499999999996
 21
9.7750000000000004
 31
0.0
  0
LINE
  5
148
100
AcDbEntity
100
AcDbLine
  8
Cut outside
 62
256
370
-1
  6
BYLAYER
 10
42.527499999999996
 20
21.024999999999999
 30
0.0
 11
46.277500000000003
 21
21.024999999999999
 31
0.0
  0
LINE
  5
149
100
AcDbEntity
100
AcDbLine
  8
Cut outside
 62
256
370
-1
  6
BYLAYER
 10
46.277500000000003
 20
21.024999999999999
 30
0.0
 11
46.277500000000003
 21
9.7750000000000004
 31
0.0
  0
LINE
  5
14A
100
AcDbEntity
100
AcDbLine
  8
Cut outside
 62
256
370
-1
  6
BYLAYER
 10
23.2775
 20
9.7750000000000004
 30
0.0
 11
23.2775
 21
21.024999999999999
 31
0.0
  0
LINE
  5
14B
100
AcDbEntity
100
AcDbLine
  8
Cut outside
 62
256
370
-1
  6
BYLAYER
 10
23.2775
 20
21.024999999999999
 30
0.0
 11
27.0275
 21
21.024999999999999
 31
0.0
  0
LINE
  5
14C
100
AcDbEntity
100
AcDbLine
  8
Cut outside
 62
256
370
-1
  6
BYLAYER
 10
46.277500000000003
 20
9.7750000000000004
 30
0.0
 11
23.277499999999996
 21
9.7750000000000004
 31
0.0
  0
LINE
  5
14D
100
AcDbEntity
100
AcDbLine
  8
Cut outside
 62
256
370
-1
  6
BYLAYER
 10
18.277499999999996
 20
9.7750000000000004
 30
0.0
 11
14.550000000000004
 21
9.7750000000000004
 31
0.0
  0
ENDBLK
  5
14E
100
AcDbEntity
  8
0
100
AcDbBlockEnd
  0
BLOCK
  5
14F
100
AcDbEntity
  8
0
100
AcDbBlockBegin
  2
top
 70
0
 10
0.0
 20
0.0
 30
0.0
  3
top
  1

  0
LINE
  5
150
100
AcDbEntity
100
AcDbLine
  8
Cut outside
 62
256
370
-1
  6
BYLAYER
 10
60.004678328087493
 20
76.702017001874978
 30
0.0
 11
60.004678328087493
 21
70.004481972374961
 31
0.0
  0
LINE
  5
151
100
AcDbEntity
100
AcDbLine
  8
Cut outside
 62
256
370
-1
  6
BYLAYER
 10
60.004678328087493
 20
70.004481972374961
 30
0.0
 11
64.77981194714998
 21
70.004481972374961
 31
0.0
  0
LINE
  5
152
100
AcDbEntity
100
AcDbLine
  8
Cut outside
 62
256
370
-1
  6
BYLAYER
 10
64.77981194714998
 20
70.004481972374961
 30
0.0
 11
64.77981194714998
 21
60.228070615312475
 31
0.0
  0
LINE
  5
153
100
AcDbEntity
100
AcDbLine
  8
Cut outside
 62
256
370
-1
  6
BYLAYER
 10
64.77981194714998
 20
60.228070615312475
 30
0.0
 11
60.004678328087493
 21
60.228070615312475
 31
0.0
  0
LINE
  5
154
100
AcDbEntity
100
AcDbLine
  8
Cut outside
 62
256
370
-1
  6
BYLAYER
 10
60.004678328087493
 20
60.228070615312475
 30
0.0
 11
60.004678328087493
 21
14.77627789931249
 31
0.0
  0
LINE
  5
155
100
AcDbEntity
100
AcDbLine
  8
Cut outside
 62
256
370
-1
  6
BYLAYER
 10
60.004678328087493
 20
14.77627789931249
 30
0.0
 11
64.77981194714998
 21
14.77627789931249
 31
0.0
  0
LINE
  5
156
100
AcDbEntity
100
AcDbLine
  8
Cut outside
 62
256
370
-1
  6
BYLAYER
 10
64.77981194714998
 20
14.77627789931249
 30
0.0
 11
64.77981194714998
 21
4.9998665422500181
 31
0.0
  0
LINE
  5
157
100
AcDbEntity
100
AcDbLine
  8
Cut outside
 62
256
370
-1
  6
BYLAYER
 10
64.77981194714998
 20
4.9998665422500181
 30
0.0
 11
60.004678328087493
 21
4.9998665422500181
 31
0.0
  0
LINE
  5
158
100
AcDbEntity
100
AcDbLine
  8
Cut outside
 62
256
370
-1
  6
BYLAYER
 10
60.004678328087493
 20
4.9998665422500181
 30
0.0
 11
60.004678328087493
 21
0.0
 31
0.0
  0
LINE
  5
159
100
AcDbEntity
100
AcDbLine
  8
Cut outside
 62
256
370
-1
  6
BYLAYER
 10
60.004678328087493
 20
0.0
 30
0.0
 11
0.0
 21
0.0
 31
0.0
  0
LINE
  5
15A
100
AcDbEntity
100
AcDbLine
  8
Cut outside
 62
256
370
-1
  6
BYLAYER
 10
0.0
 20
0.0
 30
0.0
 11
0.0
 21
4.9998665422500181
 31
0.0
  0
LINE
  5
15B
100
AcDbEntity
100
AcDbLine
  8
Cut outside
 62
256
370
-1
  6
BYLAYER
 10
0.0
 20
4.9998665422500181
 30
0.0
 11
-4.775193242082949
 21
4.9998665422500181
 31
0.0
  0
LINE
  5
15C
100
AcDbEntity
100
AcDbLine
  8
Cut outside
 62
256
370
-1
  6
BYLAYER
 10
-4.775193242082949
 20
4.9998665422500181
 30
0.0
 11
-4.775193242082949
 21
14.77627789931249
 31
0.0
  0
LINE
  5
15D
100
AcDbEntity
100
AcDbLine
  8
Cut outside
 62
256
370
-1
  6
BYLAYER
 10
-4.775193242082949
 20
14.77627789931249
 30
0.0
 11
0.0
 21
14.77627789931249
 31
0.0
  0
LINE
  5
15E
100
AcDbEntity
100
AcDbLine
  8
Cut outside
 62
256
370
-1
  6
BYLAYER
 10
0.0
 20
14.77627789931249
 30
0.0
 11
0.0
 21
60.228070615312475
 31
0.0
  0
LINE
  5
15F
100
AcDbEntity
100
AcDbLine
  8
Cut outside
 62
256
370
-1
  6
BYLAYER
 10
0.0
 20
60.228070615312475
 30
0.0
 11
-4.775193242082949
 21
60.228070615312475
 31
0.0
  0
LINE
  5
160
100
AcDbEntity
100
AcDbLine
  8
Cut outside
 62
256
370
-1
  6
BYLAYER
 10
-4.775193242082949
 20
60.228070615312475
 30
0.0
 11
-4.775193242082949
 21
70.004481972374961
 31
0.0
  0
LINE
  5
161
100
AcDbEntity
100
AcDbLine
  8
Cut outside
 62
256
370
-1
  6
BYLAYER
 10
-4.775193242082949
 20
70.004481972374961
 30
0.0
 11
0.0
 21
70.004481972374961
 31
0.0
  0
LINE
  5
162
100
AcDbEntity
100
AcDbLine
  8
Cut outside
 62
256
370
-1
  6
BYLAYER
 10
0.0
 20
70.004481972374961
 30
0.0
 11
0.0
 21
76.702017001874978
 31
0.0
  0
LINE
  5
163
100
AcDbEntity
100
AcDbLine
  8
Engrave
 62
256
370
50
  6
BYLAYER
 10
30.003080041812495
 20
37.272854947937475
 30
0.0
 11
30.003080041812495
 21
43.532213697062488
 31
0.0
  0
LINE
  5
164
100
AcDbEntity
100
AcDbLine
  8
Engrave
 62
256
370
50
  6
BYLAYER
 10
30.003080041812495
 20
43.532213697062488
 30
0.0
 11
32.833868156524993
 21
40.853058565687519
 31
0.0
  0
LINE
  5
165
100
AcDbEntity
100
AcDbLine
  8
Engrave
 62
256
370
50
  6
BYLAYER
 10
32.833868156524993
 20
40.853058565687519
 30
0.0
 11
30.003080041812488
 21
43.530802501312493
 31
0.0
  0
LINE
  5
166
100
AcDbEntity
100
AcDbLine
  8
Engrave
 62
256
370
50
  6
BYLAYER
 10
30.003080041812488
 20
43.530802501312493
 30
0.0
 11
27.171021850924987
 21
40.853058565687519
 31
0.0
  0
LINE
  5
167
100
AcDbEntity
100
AcDbLine
  8
Engrave
 62
256
370
50
  6
BYLAYER
 10
27.171021850924987
 20
40.853058565687519
 30
0.0
 11
30.003080041812488
 21
43.530802501312493
 31
0.0
  0
LINE
  5
168
100
AcDbEntity
100
AcDbLine
  8
Engrave
 62
256
370
50
  6
BYLAYER
 10
30.003080041812488
 20
43.530802501312493
 30
0.0
 11
30.003080041812488
 21
37.272854947937475
 31
0.0
  0
LINE
  5
169
100
AcDbEntity
100
AcDbLine
  8
Engrave
 62
256
370
50
  6
BYLAYER
 10
30.003080041812488
 20
37.272854947937475
 30
0.0
 11
30.003080041812495
 21
37.272854947937475
 31
0.0
  0
LINE
  5
16A
100
AcDbEntity
100
AcDbLine
  8
Engrave
 62
256
370
50
  6
BYLAYER
 10
30.003080041812495
 20
37.272854947937475
 30
0.0
 11
30.003080041812495
 21
43.532213697062488
 31
0.0
  0
LINE
  5
16B
100
AcDbEntity
100
AcDbLine
  8
Engrave
 62
256
370
50
  6
BYLAYER
 10
30.003080041812495
 20
43.532213697062488
 30
0.0
 11
32.833868156524993
 21
40.853058565687519
 31
0.0
  0
LINE
  5
16C
100
AcDbEntity
100
AcDbLine
  8
Engrave
 62
256
370
50
  6
BYLAYER
 10
32.833868156524993
 20
40.853058565687519
 30
0.0
 11
30.003080041812488
 21
43.530802501312493
 31
0.0
  0
LINE
  5
16D
100
AcDbEntity
100
AcDbLine
  8
Engrave
 62
256
370
50
  6
BYLAYER
 10
30.003080041812488
 20
43.530802501312493
 30
0.0
 11
27.171021850924987
 21
40.853058565687519
 31
0.0
  0
LINE
  5
16E
100
AcDbEntity
100
AcDbLine
  8
Engrave
 62
256
370
50
  6
BYLAYER
 10
27.171021850924987
 20
40.853058565687519
 30
0.0
 11
30.003080041812488
 21
43.530802501312493
 31
0.0
  0
LINE
  5
16F
100
AcDbEntity
100
AcDbLine
  8
Engrave
 62
256
370
50
  6
BYLAYER
 10
30.003080041812488
 20
43.530802501312493
 30
0.0
 11
30.003080041812488
 21
37.272854947937475
 31
0.0
  0
LINE
  5
170
100
AcDbEntity
100
AcDbLine
  8
Engrave
 62
256
370
50
  6
BYLAYER
 10
30.003080041812488
 20
37.272854947937475
 30
0.0
 11
30.003080041812495
 21
37.272854947937475
 31
0.0
  0
TEXT
  5
171
100
AcDbEntity
100
AcDbText
  8
Engrave
 62
256
370
-1
  6
BYLAYER
 10
0.0
 20
0.0
 30
0.0
 40
3.0
  1
Top Front
 50
0.0
 41
1.0
  7
textstyle7
 71
0
 72
1
 11
30.112806206144299
 21
31.500203577069279
 31
0.0
100
AcDbText
 73
1
  0
INSERT
  5
172
100
AcDbEntity
100
AcDbBlockReference
  8
Cut outside
 62
256
370
-1
  6
BYLAYER
  2
raspberrypi
 10
1.679
 20
65.024000000000001
 30
0.0
 50
270.0
  0
LINE
  5
173
100
AcDbEntity
100
AcDbLine
  8
Cut outside
 62
256
370
-1
  6
BYLAYER
 10
20.002339164043747
 20
65.102017001874984
 30
0.0
 11
40.002339164043747
 21
65.102017001874984
 31
0.0
  0
LINE
  5
174
100
AcDbEntity
100
AcDbLine
  8
Cut outside
 62
256
370
-1
  6
BYLAYER
 10
40.002339164043747
 20
65.102017001874984
 30
0.0
 11
40.002339164043747
 21
76.702017001874978
 31
0.0
  0
LINE
  5
175
100
AcDbEntity
100
AcDbLine
  8
Cut outside
 62
256
370
-1
  6
BYLAYER
 10
20.002339164043747
 20
76.702017001874978
 30
0.0
 11
20.002339164043747
 21
65.102017001874984
 31
0.0
  0
LINE
  5
176
100
AcDbEntity
100
AcDbLine
  8
Cut outside
 62
256
370
-1
  6
BYLAYER
 10
11.001169582021872
 20
72.702017001874978
 30
0.0
 11
11.001169582021872
 21
76.702017001874978
 31
0.0
  0
LINE
  5
177
100
AcDbEntity
100
AcDbLine
  8
Cut outside
 62
256
370
-1
  6
BYLAYER
 10
9.0011695820218716
 20
76.702017001874978
 30
0.0
 11
9.0011695820218716
 21
72.702017001874978
 31
0.0
  0
LINE
  5
178
100
AcDbEntity
100
AcDbLine
  8
Cut outside
 62
256
370
-1
  6
BYLAYER
 10
51.00350874606562
 20
72.702017001874978
 30
0.0
 11
51.00350874606562
 21
76.702017001874978
 31
0.0
  0
LINE
  5
179
100
AcDbEntity
100
AcDbLine
  8
Cut outside
 62
256
370
-1
  6
BYLAYER
 10
49.00350874606562
 20
76.702017001874978
 30
0.0
 11
49.00350874606562
 21
72.702017001874978
 31
0.0
  0
LINE
  5
17A
100
AcDbEntity
100
AcDbLine
  8
Cut outside
 62
256
370
-1
  6
BYLAYER
 10
7.5011695820218716
 20
68.702017001874978
 30
0.0
 11
12.501169582021872
 21
68.702017001874978
 31
0.0
  0
LINE
  5
17B
100
AcDbEntity
100
AcDbLine
  8
Cut outside
 62
256
370
-1
  6
BYLAYER
 10
12.501169582021872
 20
68.702017001874978
 30
0.0
 11
12.501169582021872
 21
72.702017001874978
 31
0.0
  0
LINE
  5
17C
100
AcDbEntity
100
AcDbLine
  8
Cut outside
 62
256
370
-1
  6
BYLAYER
 10
7.5011695820218716
 20
72.702017001874978
 30
0.0
 11
7.5011695820218716
 21
68.702017001874978
 31
0.0
  0
LINE
  5
17D
100
AcDbEntity
100
AcDbLine
  8
Cut outside
 62
256
370
-1
  6
BYLAYER
 10
47.50350874606562
 20
68.702017001874978
 30
0.0
 11
52.50350874606562
 21
68.702017001874978
 31
0.0
  0
LINE
  5
17E
100
AcDbEntity
100
AcDbLine
  8
Cut outside
 62
256
370
-1
  6
BYLAYER
 10
52.50350874606562
 20
68.702017001874978
 30
0.0
 11
52.50350874606562
 21
72.702017001874978
 31
0.0
  0
LINE
  5
17F
100
AcDbEntity
100
AcDbLine
  8
Cut outside
 62
256
370
-1
  6
BYLAYER
 10
47.50350874606562
 20
72.702017001874978
 30
0.0
 11
47.50350874606562
 21
68.702017001874978
 31
0.0
  0
LINE
  5
180
100
AcDbEntity
100
AcDbLine
  8
Cut outside
 62
256
370
-1
  6
BYLAYER
 10
12.501169582021872
 20
72.702017001874978
 30
0.0
 11
11.001169582021872
 21
72.702017001874978
 31
0.0
  0
LINE
  5
181
100
AcDbEntity
100
AcDbLine
  8
Cut outside
 62
256
370
-1
  6
BYLAYER
 10
9.0011695820218716
 20
72.702017001874978
 30
0.0
 11
7.5011695820218716
 21
72.702017001874978
 31
0.0
  0
LINE
  5
182
100
AcDbEntity
100
AcDbLine
  8
Cut outside
 62
256
370
-1
  6
BYLAYER
 10
0.0
 20
76.702017001874978
 30
0.0
 11
9.0011695820218716
 21
76.702017001874978
 31
0.0
  0
LINE
  5
183
100
AcDbEntity
100
AcDbLine
  8
Cut outside
 62
256
370
-1
  6
BYLAYER
 10
11.001169582021872
 20
76.702017001874978
 30
0.0
 11
20.002339164043743
 21
76.702017001874978
 31
0.0
  0
LINE
  5
184
100
AcDbEntity
100
AcDbLine
  8
Cut outside
 62
256
370
-1
  6
BYLAYER
 10
52.50350874606562
 20
72.702017001874978
 30
0.0
 11
51.00350874606562
 21
72.702017001874978
 31
0.0
  0
LINE
  5
185
100
AcDbEntity
100
AcDbLine
  8
Cut outside
 62
256
370
-1
  6
BYLAYER
 10
49.00350874606562
 20
72.702017001874978
 30
0.0
 11
47.50350874606562
 21
72.702017001874978
 31
0.0
  0
LINE
  5
186
100
AcDbEntity
100
AcDbLine
  8
Cut outside
 62
256
370
-1
  6
BYLAYER
 10
40.002339164043747
 20
76.702017001874978
 30
0.0
 11
49.00350874606562
 21
76.702017001874978
 31
0.0
  0
LINE
  5
187
100
AcDbEntity
100
AcDbLine
  8
Cut outside
 62
256
370
-1
  6
BYLAYER
 10
51.00350874606562
 20
76.702017001874978
 30
0.0
 11
60.004678328087493
 21
76.702017001874978
 31
0.0
  0
DIMENSION
  5
188
100
AcDbEntity
  8
Docs
 62
256
370
-1
  6
BYLAYER
100
AcDbDimension
 10
62.598881167712882
 20
9.8428202693569062
 30
0.0
 11
30.002309352533512
 21
11.717820269356906
 31
0.0
 70
0
 71
8
 72
2
 41
1.0
 42
0.0
  1

  3
Standard
100
AcDbAlignedDimension
 13
-4.775193242082949
 23
9.8880722207812539
 33
0.0
 14
64.77981194714998
 24
9.8880722207812539
 34
0.0
 50
0.0
100
AcDbRotatedDimension
1001
ACAD
1000
DSTYLE
1002
{
1070
144
1040
1
1002
}
  0
ENDBLK
  5
189
100
AcDbEntity
  8
0
100
AcDbBlockEnd
  0
BLOCK
  5
18A
100
AcDbEntity
  8
0
100
AcDbBlockBegin
  2
picamera
 70
0
 10
0.0
 20
0.0
 30
0.0
  3
picamera
  1

  0
LINE
  5
18B
100
AcDbEntity
100
AcDbLine
  8
Docs
 62
256
370
-1
  6
BYLAYER
 10
0.0
 20
0.0
 30
0.0
 11
25.0
 21
0.0
 31
0.0
  0
LINE
  5
18C
100
AcDbEntity
100
AcDbLine
  8
Docs
 62
256
370
-1
  6
BYLAYER
 10
25.0
 20
0.0
 30
0.0
 11
25.0
 21
24.0
 31
0.0
  0
LINE
  5
18D
100
AcDbEntity
100
AcDbLine
  8
Docs
 62
256
370
-1
  6
BYLAYER
 10
25.0
 20
24.0
 30
0.0
 11
0.0
 21
24.0
 31
0.0
  0
LINE
  5
18E
100
AcDbEntity
100
AcDbLine
  8
Docs
 62
256
370
-1
  6
BYLAYER
 10
0.0
 20
24.0
 30
0.0
 11
0.0
 21
0.0
 31
0.0
  0
CIRCLE
  5
18F
100
AcDbEntity
100
AcDbCircle
  8
Cut insides
 62
256
370
-1
  6
BYLAYER
 10
1.75
 20
14.25
 30
0.0
 40
1.25
  0
CIRCLE
  5
190
100
AcDbEntity
100
AcDbCircle
  8
Cut insides
 62
256
370
-1
  6
BYLAYER
 10
23.25
 20
14.25
 30
0.0
 40
1.25
  0
TEXT
  5
191
100
AcDbEntity
100
AcDbText
  8
Docs
 62
256
370
-1
  6
BYLAYER
 10
0.0
 20
0.0
 30
0.0
 40
1.0
  1
Cable
 50
0.0
 41
1.0
  7
textstyle4
 71
0
 72
1
 11
12.5
 21
23.395899053627755
 31
0.0
100
AcDbText
 73
3
  0
TEXT
  5
192
100
AcDbEntity
100
AcDbText
  8
Docs
 62
256
370
-1
  6
BYLAYER
 10
0.0
 20
0.0
 30
0.0
 40
1.0
  1
\U+2191
 50
0.0
 41
1.0
  7
textstyle5
 71
0
 72
1
 11
12.5
 21
21.818611987381701
 31
0.0
100
AcDbText
 73
3
  0
ENDBLK
  5
193
100
AcDbEntity
  8
0
100
AcDbBlockEnd
  0
BLOCK
  5
194
100
AcDbEntity
  8
0
100
AcDbBlockBegin
  2
shovel-BEAM
 70
0
 10
0.0
 20
0.0
 30
0.0
  3
shovel-BEAM
  1

  0
INSERT
  5
195
100
AcDbEntity
100
AcDbBlockReference
  8
0
 62
256
370
-1
  6
BYLAYER
  2
shovel-accessory
 10
0.0
 20
0.0
 30
0.0
  0
IMAGE
  5
196
  8
Engrave
 62
256
370
-1
  6
BYLAYER
100
AcDbEntity
100
AcDbRasterImage
 90
0
 10
35.0
 20
5.0
 30
0.0
 11
0.1
 21
0.0
 31
0.0
 12
0.0
 22
0.1
 32
0.0
 13
0.0
 23
0.0
340
197
 70
15
280
0
281
50
282
50
283
0
  0
MTEXT
  5
198
100
AcDbEntity
100
AcDbMText
  8
Engrave
 62
256
370
-1
  6
BYLAYER
 10
52.5
 20
23.642010309278326
 30
0.0
 40
9.0
 41
0.0
 71
5
 72
1
  1
Running on \PBEAM
  7
textstyle3
 50
0.0
 73
2
 44
1.0
  0
ENDBLK
  5
199
100
AcDbEntity
  8
0
100
AcDbBlockEnd
  0
BLOCK
  5
19A
100
AcDbEntity
  8
0
100
AcDbBlockBegin
  2
raspberrypi
 70
0
 10
0.0
 20
0.0
 30
0.0
  3
raspberrypi
  1

  0
CIRCLE
  5
19B
100
AcDbEntity
100
AcDbCircle
  8
Cut insides
 62
256
370
-1
  6
BYLAYER
 10
61.468000000000004
 20
52.832000000000001
 30
0.0
 40
1.25
  0
CIRCLE
  5
19C
100
AcDbEntity
100
AcDbCircle
  8
Cut insides
 62
256
370
-1
  6
BYLAYER
 10
3.556
 20
3.8100000000000001
 30
0.0
 40
1.25
  0
CIRCLE
  5
19D
100
AcDbEntity
100
AcDbCircle
  8
Cut insides
 62
256
370
-1
  6
BYLAYER
 10
61.468000000000004
 20
3.8100000000000001
 30
0.0
 40
1.25
  0
CIRCLE
  5
19E
100
AcDbEntity
100
AcDbCircle
  8
Cut insides
 62
256
370
-1
  6
BYLAYER
 10
3.556
 20
52.832000000000001
 30
0.0
 40
1.25
  0
TEXT
  5
19F
100
AcDbEntity
100
AcDbText
  8
Docs
 62
256
370
-1
  6
BYLAYER
 10
0.0
 20
0.0
 30
0.0
 40
1.0
  1
SDCard
 50
90.0
 41
1.0
  7
textstyle0
 71
0
 72
1
 11
5.0
 21
28.320999999999998
 31
0.0
100
AcDbText
 73
1
  0
LINE
  5
1A0
100
AcDbEntity
100
AcDbLine
  8
Docs
 62
256
370
-1
  6
BYLAYER
 10
0.0
 20
0.0
 30
0.0
 11
65.024000000000001
 21
0.0
 31
0.0
  0
LINE
  5
1A1
100
AcDbEntity
100
AcDbLine
  8
Docs
 62
256
370
-1
  6
BYLAYER
 10
65.024000000000001
 20
0.0
 30
0.0
 11
65.024000000000001
 21
56.642000000000003
 31
0.0
  0
LINE
  5
1A2
100
AcDbEntity
100
AcDbLine
  8
Docs
 62
256
370
-1
  6
BYLAYER
 10
65.024000000000001
 20
56.642000000000003
 30
0.0
 11
0.0
 21
56.642000000000003
 31
0.0
  0
LINE
  5
1A3
100
AcDbEntity
100
AcDbLine
  8
Docs
 62
256
370
-1
  6
BYLAYER
 10
0.0
 20
56.642000000000003
 30
0.0
 11
0.0
 21
0.0
 31
0.0
  0
TEXT
  5
1A4
100
AcDbEntity
100
AcDbText
  8
Docs
 62
256
370
-1
  6
BYLAYER
 10
19.638981765442562
 20
-22.859067782302347
 30
0.0
 40
1.0
  1
USB Power Connector
 50
0.0
 41
1.0
  7
textstyle1
 71
0
 72
1
 11
15.524287066246053
 21
1.6554384858044102
 31
0.0
100
AcDbText
 73
1
  0
TEXT
  5
1A5
100
AcDbEntity
100
AcDbText
  8
Docs
 62
256
370
-1
  6
BYLAYER
 10
39.436151686384541
 20
25.832811521726946
 30
0.0
 40
1.0
  1
GPIO Connector
 50
0.0
 41
1.0
  7
textstyle2
 71
0
 72
1
 11
16.450889589905362
 21
52.515621451104096
 31
0.0
100
AcDbText
 73
1
  0
LINE
  5
1A6
100
AcDbEntity
100
AcDbLine
  8
Docs
 62
256
370
-1
  6
BYLAYER
 10
0.0
 20
22.821000000000002
 30
0.0
 11
5.0
 21
22.821000000000002
 31
0.0
  0
LINE
  5
1A7
100
AcDbEntity
100
AcDbLine
  8
Docs
 62
256
370
-1
  6
BYLAYER
 10
5.0
 20
22.821000000000002
 30
0.0
 11
5.0
 21
33.820999999999998
 31
0.0
  0
LINE
  5
1A8
100
AcDbEntity
100
AcDbLine
  8
Docs
 62
256
370
-1
  6
BYLAYER
 10
5.0
 20
33.820999999999998
 30
0.0
 11
0.0
 21
33.820999999999998
 31
0.0
  0
LINE
  5
1A9
100
AcDbEntity
100
AcDbLine
  8
Docs
 62
256
370
-1
  6
BYLAYER
 10
0.0
 20
33.820999999999998
 30
0.0
 11
0.0
 21
22.821000000000002
 31
0.0
  0
ENDBLK
  5
1AA
100
AcDbEntity
  8
0
100
AcDbBlockEnd
  0
BLOCK
  5
1AB
100
AcDbEntity
  8
0
100
AcDbBlockBegin
  2
Nerves-logo
 70
0
 10
0.0
 20
0.0
 30
0.0
  3
Nerves-logo
  1

  0
HATCH
  5
1AC
  8
0
 62
9
420
12632256
370
-1
  6
BYLAYER
100
AcDbEntity
100
AcDbHatch
 10
0.0
 20
0.0
 30
0.0
210
0.0
220
0.0
230
1.0
  2
SOLID
 70
1
 71
0
 91
1
 92
1
 93
4
 72
1
 10
0.0063995908498464
 20
117.99564249687319
 11
118.44372656862762
 21
117.99564249687319
 72
1
 10
118.44372656862762
 20
117.99564249687319
 11
118.44372656862762
 21
0.0115248968732118
 72
1
 10
118.44372656862762
 20
0.0115248968732118
 11
0.0063995908498464
 21
0.0115248968732118
 72
1
 10
0.0063995908498464
 20
0.0115248968732118
 11
0.0063995908498464
 21
117.99564249687319
 97
0
 75
0
 76
1
 98
0
1001
ACAD
1010
0.0
1020
0.0
1030
0
  0
HATCH
  5
1AD
  8
Engrave
 62
7
420
0
370
-1
  6
BYLAYER
100
AcDbEntity
100
AcDbHatch
 10
0.0
 20
0.0
 30
0.0
210
0.0
220
0.0
230
1.0
  2
SOLID
 70
1
 71
0
 91
7
 92
1
 93
9
 72
1
 10
29.649452657516512
 20
19.107450919095427
 11
29.649452657516512
 21
9.7071846746509749
 72
1
 10
29.649452657516512
 20
9.7071846746509749
 11
20.249186413072074
 21
9.7071846746509749
 72
1
 10
20.249186413072074
 20
9.7071846746509749
 11
10.848917346405401
 21
9.7071846746509749
 72
1
 10
10.848917346405401
 20
9.7071846746509749
 11
10.848917346405401
 21
19.107450919095427
 72
1
 10
10.848917346405401
 20
19.107450919095427
 11
10.848917346405401
 21
19.107450919095427
 72
1
 10
10.848917346405401
 20
19.107450919095427
 11
10.848917346405401
 21
28.50771998576208
 72
1
 10
10.848917346405401
 20
28.50771998576208
 11
20.249186413072074
 21
28.50771998576208
 72
1
 10
20.249186413072074
 20
28.50771998576208
 11
29.649452657516512
 21
28.50771998576208
 72
1
 10
29.649452657516512
 20
28.50771998576208
 11
29.649452657516512
 21
19.107450919095427
 97
0
 92
1
 93
9
 72
1
 10
89.89661859084984
 20
19.107450919095427
 11
89.89661859084984
 21
28.50771998576208
 72
1
 10
89.89661859084984
 20
28.50771998576208
 11
99.296887657516493
 21
28.50771998576208
 72
1
 10
99.296887657516493
 20
28.50771998576208
 11
108.69715390196095
 21
28.50771998576208
 72
1
 10
108.69715390196095
 20
28.50771998576208
 11
108.69715390196095
 21
19.107450919095427
 72
1
 10
108.69715390196095
 20
19.107450919095427
 11
108.69715390196095
 21
9.7071846746509749
 72
1
 10
108.69715390196095
 20
9.7071846746509749
 11
99.296887657516493
 21
9.7071846746509749
 72
1
 10
99.296887657516493
 20
9.7071846746509749
 11
89.89661859084984
 21
9.7071846746509749
 72
1
 10
89.89661859084984
 20
9.7071846746509749
 11
89.89661859084984
 21
19.107450919095427
 72
1
 10
89.89661859084984
 20
19.107450919095427
 11
89.89661859084984
 21
19.107450919095427
 97
0
 92
1
 93
9
 72
1
 10
10.848917346405401
 20
78.393226852428768
 11
10.848917346405401
 21
87.686674807984332
 72
1
 10
10.848917346405401
 20
87.686674807984332
 11
30.076737101960966
 21
87.686674807984332
 72
1
 10
30.076737101960966
 20
87.686674807984332
 11
49.304556857516509
 21
87.686674807984332
 72
1
 10
49.304556857516509
 20
87.686674807984332
 11
49.304556857516509
 21
78.393226852428768
 72
1
 10
49.304556857516509
 20
78.393226852428768
 11
49.304556857516509
 21
69.099781719095432
 72
1
 10
49.304556857516509
 20
69.099781719095432
 11
30.076737101960966
 21
69.099781719095432
 72
1
 10
30.076737101960966
 20
69.099781719095432
 11
10.848917346405415
 21
69.099781719095432
 72
1
 10
10.848917346405415
 20
69.099781719095432
 11
10.848917346405415
 21
78.393226852428768
 72
1
 10
10.848917346405401
 20
78.393226852428768
 11
10.848917346405415
 21
78.393226852428768
 97
0
 92
1
 93
9
 72
1
 10
50.37276796862762
 20
58.631301541317661
 11
50.37276796862762
 21
68.031570607984321
 72
1
 10
50.37276796862762
 20
68.031570607984321
 11
59.773037035294287
 21
68.031570607984321
 72
1
 10
59.773037035294287
 20
68.031570607984321
 11
69.173303279738747
 21
68.031570607984321
 72
1
 10
69.173303279738747
 20
68.031570607984321
 11
69.173303279738747
 21
58.631301541317661
 72
1
 10
69.173303279738747
 20
58.631301541317661
 11
69.173303279738747
 21
49.231035296873202
 72
1
 10
69.173303279738747
 20
49.231035296873202
 11
59.773037035294287
 21
49.231035296873202
 72
1
 10
59.773037035294287
 20
49.231035296873202
 11
50.37276796862762
 21
49.231035296873202
 72
1
 10
50.37276796862762
 20
49.231035296873202
 11
50.37276796862762
 21
58.631301541317661
 72
1
 10
50.37276796862762
 20
58.631301541317661
 11
50.37276796862762
 21
58.631301541317661
 97
0
 92
1
 93
9
 72
1
 10
70.241514390849829
 20
78.393226852428768
 11
70.241514390849829
 21
87.686674807984332
 72
1
 10
70.241514390849829
 20
87.686674807984332
 11
89.469334146405401
 21
87.686674807984332
 72
1
 10
89.469334146405401
 20
87.686674807984332
 11
108.69715390196095
 21
87.686674807984332
 72
1
 10
108.69715390196095
 20
87.686674807984332
 11
108.69715390196095
 21
78.393226852428768
 72
1
 10
108.69715390196095
 20
78.393226852428768
 11
108.69715390196095
 21
69.099781719095432
 72
1
 10
108.69715390196095
 20
69.099781719095432
 11
89.469334146405401
 21
69.099781719095432
 72
1
 10
89.469334146405401
 20
69.099781719095432
 11
70.241514390849829
 21
69.099781719095432
 72
1
 10
70.241514390849829
 20
69.099781719095432
 11
70.241514390849829
 21
78.393226852428768
 72
1
 10
70.241514390849829
 20
78.393226852428768
 11
70.241514390849829
 21
78.393226852428768
 97
0
 92
1
 93
9
 72
1
 10
70.241514390849829
 20
38.869376230206527
 11
70.241514390849829
 21
48.162824185762062
 72
1
 10
70.241514390849829
 20
48.162824185762062
 11
79.534962346405393
 21
48.162824185762062
 72
1
 10
79.534962346405393
 20
48.162824185762062
 11
88.828407479738729
 21
48.162824185762062
 72
1
 10
88.828407479738729
 20
48.162824185762062
 11
88.828407479738729
 21
38.869376230206527
 72
1
 10
88.828407479738729
 20
38.869376230206527
 11
88.828407479738729
 21
29.575931096873191
 72
1
 10
88.828407479738729
 20
29.575931096873191
 11
79.534962346405393
 21
29.575931096873191
 72
1
 10
79.534962346405393
 20
29.575931096873191
 11
70.241514390849829
 21
29.575931096873191
 72
1
 10
70.241514390849829
 20
29.575931096873191
 11
70.241514390849829
 21
38.869376230206527
 72
1
 10
70.241514390849829
 20
38.869376230206527
 11
70.241514390849829
 21
38.869376230206527
 97
0
 92
1
 93
9
 72
1
 10
30.717663768627624
 20
38.869376230206527
 11
30.717663768627624
 21
48.162824185762062
 72
1
 10
30.717663768627624
 20
48.162824185762062
 11
40.011111724183188
 21
48.162824185762062
 72
1
 10
40.011111724183188
 20
48.162824185762062
 11
49.304556857516509
 21
48.162824185762062
 72
1
 10
49.304556857516509
 20
48.162824185762062
 11
49.304556857516509
 21
38.869376230206527
 72
1
 10
49.304556857516509
 20
38.869376230206527
 11
49.304556857516509
 21
29.575931096873191
 72
1
 10
49.304556857516509
 20
29.575931096873191
 11
40.011111724183188
 21
29.575931096873191
 72
1
 10
40.011111724183188
 20
29.575931096873191
 11
30.717663768627638
 21
29.575931096873191
 72
1
 10
30.717663768627638
 20
29.575931096873191
 11
30.717663768627638
 21
38.869376230206527
 72
1
 10
30.717663768627624
 20
38.869376230206527
 11
30.717663768627638
 21
38.869376230206527
 97
0
 75
0
 76
1
 98
0
1001
ACAD
1010
0.0
1020
0.0
1030
0
  0
ENDBLK
  5
1AE
100
AcDbEntity
  8
0
100
AcDbBlockEnd
  0
BLOCK
  5
1AF
100
AcDbEntity
  8
0
100
AcDbBlockBegin
  2
shovel-grill
 70
0
 10
0.0
 20
0.0
 30
0.0
  3
shovel-grill
  1

  0
LINE
  5
1B0
100
AcDbEntity
100
AcDbLine
  8
Cut outside
 62
256
370
-1
  6
BYLAYER
 10
-0.0000000000000142
 20
0.0
 30
0.0
 11
-0.0000000000000142
 21
0.0
 31
0.0
  0
ARC
  5
1B1
100
AcDbEntity
  8
Cut insides
 62
256
370
-1
  6
BYLAYER
100
AcDbCircle
 10
32.505784983434914
 20
38.755629098015042
 30
0.0
 40
1.2471519318571302
100
AcDbArc
 50
359.87054249398909
 51
90.129457505987148
  0
LINE
  5
1B2
100
AcDbEntity
100
AcDbLine
  8
Cut insides
 62
256
370
-1
  6
BYLAYER
 10
33.752933731839171
 20
38.752811210856265
 30
0.0
 11
33.752933731839171
 21
6.2511738137750257
 31
0.0
  0
ARC
  5
1B3
100
AcDbEntity
  8
Cut insides
 62
256
370
-1
  6
BYLAYER
100
AcDbCircle
 10
32.505762514000146
 20
6.2483783960516632
 30
0.0
 40
1.2471743506690809
100
AcDbArc
 50
269.87157708017764
 51
0.1284229198189754
  0
ARC
  5
1B4
100
AcDbEntity
  8
Cut insides
 62
256
370
-1
  6
BYLAYER
100
AcDbCircle
 10
32.499324109550564
 20
6.2474956504751589
 30
0.0
 40
1.2462937966013587
100
AcDbArc
 50
179.83090380458171
 51
270.16747901821861
  0
LINE
  5
1B5
100
AcDbEntity
100
AcDbLine
  8
Cut insides
 62
256
370
-1
  6
BYLAYER
 10
31.253035740607935
 20
6.2511738137750257
 30
0.0
 11
31.253035740607935
 21
38.752811210856265
 31
0.0
  0
ARC
  5
1B6
100
AcDbEntity
  8
Cut insides
 62
256
370
-1
  6
BYLAYER
100
AcDbCircle
 10
32.499301683990119
 20
38.756511799084755
 30
0.0
 40
1.2462714375234483
100
AcDbArc
 50
89.831486985383364
 51
180.17013019186345
  0
LINE
  5
1B7
100
AcDbEntity
100
AcDbLine
  8
Cut insides
 62
256
370
-1
  6
BYLAYER
 10
32.502967096276677
 20
40.002777846418759
 30
0.0
 11
32.502967096276677
 21
40.002777846418759
 31
0.0
  0
ARC
  5
1B8
100
AcDbEntity
  8
Cut insides
 62
256
370
-1
  6
BYLAYER
100
AcDbCircle
 10
37.506584382726835
 20
38.756526675162597
 30
0.0
 40
1.2462567097247195
100
AcDbArc
 50
359.82918387730678
 51
90.17081612269854
  0
LINE
  5
1B9
100
AcDbEntity
100
AcDbLine
  8
Cut insides
 62
256
370
-1
  6
BYLAYER
 10
38.752835553982926
 20
38.752811210856265
 30
0.0
 11
38.752835553982926
 21
6.2511738137750257
 31
0.0
  0
ARC
  5
1BA
100
AcDbEntity
  8
Cut insides
 62
256
370
-1
  6
BYLAYER
100
AcDbCircle
 10
37.506561959002262
 20
6.2474807731931321
 30
0.0
 40
1.2462790666999444
100
AcDbArc
 50
269.83021784267231
 51
0.1697821573319679
  0
ARC
  5
1BB
100
AcDbEntity
  8
Cut insides
 62
256
370
-1
  6
BYLAYER
100
AcDbCircle
 10
37.499175877838788
 20
6.2474807731931463
 30
0.0
 40
1.2462790666998431
100
AcDbArc
 50
179.83021784266805
 51
270.16978215731916
  0
LINE
  5
1BC
100
AcDbEntity
100
AcDbLine
  8
Cut insides
 62
256
370
-1
  6
BYLAYER
 10
36.252902282857917
 20
6.2511738137750257
 30
0.0
 11
36.252902282857917
 21
38.752811210856265
 31
0.0
  0
ARC
  5
1BD
100
AcDbEntity
  8
Cut insides
 62
256
370
-1
  6
BYLAYER
100
AcDbCircle
 10
37.499153454113298
 20
38.756526675161737
 30
0.0
 40
1.246256709724463
100
AcDbArc
 50
89.829183877266118
 51
180.1708161226527
  0
LINE
  5
1BE
100
AcDbEntity
100
AcDbLine
  8
Cut insides
 62
256
370
-1
  6
BYLAYER
 10
37.502868918420425
 20
40.002777846418759
 30
0.0
 11
37.502868918420425
 21
40.002777846418759
 31
0.0
  0
ARC
  5
1BF
100
AcDbEntity
  8
Cut insides
 62
256
370
-1
  6
BYLAYER
100
AcDbCircle
 10
42.506450924974978
 20
38.75652667516259
 30
0.0
 40
1.2462567097251347
100
AcDbArc
 50
359.82918387730462
 51
90.170816122612251
  0
LINE
  5
1C0
100
AcDbEntity
100
AcDbLine
  8
Cut insides
 62
256
370
-1
  6
BYLAYER
 10
43.752702096232923
 20
38.752811210856265
 30
0.0
 11
43.752702096232923
 21
6.2511738137750257
 31
0.0
  0
ARC
  5
1C1
100
AcDbEntity
  8
Cut insides
 62
256
370
-1
  6
BYLAYER
100
AcDbCircle
 10
42.506428501252124
 20
6.2474807731931179
 30
0.0
 40
1.246279066700243
100
AcDbArc
 50
269.83021784267891
 51
0.1697821573341146
  0
ARC
  5
1C2
100
AcDbEntity
  8
Cut insides
 62
256
370
-1
  6
BYLAYER
100
AcDbCircle
 10
42.499940042947266
 20
6.2483783960518195
 30
0.0
 40
1.247174350669163
100
AcDbArc
 50
179.87157708018955
 51
270.12842291980792
  0
LINE
  5
1C3
100
AcDbEntity
100
AcDbLine
  8
Cut insides
 62
256
370
-1
  6
BYLAYER
 10
41.252768825107921
 20
6.2511738137750257
 30
0.0
 11
41.252768825107921
 21
38.752811210856265
 31
0.0
  0
ARC
  5
1C4
100
AcDbEntity
  8
Cut insides
 62
256
370
-1
  6
BYLAYER
100
AcDbCircle
 10
42.499917573512541
 20
38.755629098013522
 30
0.0
 40
1.2471519318566098
100
AcDbArc
 50
89.870542494025813
 51
180.12945750594051
  0
LINE
  5
1C5
100
AcDbEntity
100
AcDbLine
  8
Cut insides
 62
256
370
-1
  6
BYLAYER
 10
42.502735460670422
 20
40.002777846418759
 30
0.0
 11
42.502735460670422
 21
40.002777846418759
 31
0.0
  0
ARC
  5
1C6
100
AcDbEntity
  8
Cut insides
 62
256
370
-1
  6
BYLAYER
100
AcDbCircle
 10
47.506478286890264
 20
38.755629098014531
 30
0.0
 40
1.2471519318562854
100
AcDbArc
 50
359.87054249401166
 51
90.129457505945979
  0
LINE
  5
1C7
100
AcDbEntity
100
AcDbLine
  8
Cut insides
 62
256
370
-1
  6
BYLAYER
 10
48.753627035295423
 20
38.752811210856265
 30
0.0
 11
48.753627035295423
 21
6.2511738137750257
 31
0.0
  0
ARC
  5
1C8
100
AcDbEntity
  8
Cut insides
 62
256
370
-1
  6
BYLAYER
100
AcDbCircle
 10
47.506455817456036
 20
6.2483783960518053
 30
0.0
 40
1.2471743506690389
100
AcDbArc
 50
269.87157708019527
 51
0.1284229198104614
  0
ARC
  5
1C9
100
AcDbEntity
  8
Cut insides
 62
256
370
-1
  6
BYLAYER
100
AcDbCircle
 10
47.500191644025513
 20
6.2477050580677371
 30
0.0
 40
1.246502706274722
100
AcDbArc
 50
179.84055765166343
 51
270.15944234834632
  0
LINE
  5
1CA
100
AcDbEntity
100
AcDbLine
  8
Cut insides
 62
256
370
-1
  6
BYLAYER
 10
46.253693764170421
 20
6.2511738137750257
 30
0.0
 11
46.253693764170421
 21
38.752811210856265
 31
0.0
  0
ARC
  5
1CB
100
AcDbEntity
  8
Cut insides
 62
256
370
-1
  6
BYLAYER
100
AcDbCircle
 10
47.500169208883584
 20
38.756302401702705
 30
0.0
 40
1.2464803338571713
100
AcDbArc
 50
89.839523530985147
 51
180.16047646888319
  0
LINE
  5
1CC
100
AcDbEntity
100
AcDbLine
  8
Cut insides
 62
256
370
-1
  6
BYLAYER
 10
47.503660399732922
 20
40.002777846418759
 30
0.0
 11
47.503660399732922
 21
40.002777846418759
 31
0.0
  0
ARC
  5
1CD
100
AcDbEntity
  8
Cut insides
 62
256
370
-1
  6
BYLAYER
100
AcDbCircle
 10
52.507242406287503
 20
38.756526675161965
 30
0.0
 40
1.2462567097252155
100
AcDbArc
 50
359.82918387733235
 51
90.170816122613857
  0
LINE
  5
1CE
100
AcDbEntity
100
AcDbLine
  8
Cut insides
 62
256
370
-1
  6
BYLAYER
 10
53.753493577545427
 20
38.752811210856265
 30
0.0
 11
53.753493577545427
 21
6.2511738137750257
 31
0.0
  0
ARC
  5
1CF
100
AcDbEntity
  8
Cut insides
 62
256
370
-1
  6
BYLAYER
100
AcDbCircle
 10
52.507219982564692
 20
6.2474807731931321
 30
0.0
 40
1.2462790667000361
100
AcDbArc
 50
269.83021784267561
 51
0.1697821573319679
  0
ARC
  5
1D0
100
AcDbEntity
  8
Cut insides
 62
256
370
-1
  6
BYLAYER
100
AcDbCircle
 10
52.500731524259635
 20
6.2483783960517911
 30
0.0
 40
1.2471743506690389
100
AcDbArc
 50
179.87157708018955
 51
270.1284229198132
  0
LINE
  5
1D1
100
AcDbEntity
100
AcDbLine
  8
Cut insides
 62
256
370
-1
  6
BYLAYER
 10
51.253560306420425
 20
6.2511738137750257
 30
0.0
 11
51.253560306420425
 21
38.752811210856265
 31
0.0
  0
ARC
  5
1D2
100
AcDbEntity
  8
Cut insides
 62
256
370
-1
  6
BYLAYER
100
AcDbCircle
 10
52.500709054825151
 20
38.755629098014161
 30
0.0
 40
1.2471519318566724
100
AcDbArc
 50
89.870542494034311
 51
180.12945750597427
  0
LINE
  5
1D3
100
AcDbEntity
100
AcDbLine
  8
Cut insides
 62
256
370
-1
  6
BYLAYER
 10
52.503526941982926
 20
40.002777846418759
 30
0.0
 11
52.503526941982926
 21
40.002777846418759
 31
0.0
  0
ARC
  5
1D4
100
AcDbEntity
  8
Cut insides
 62
256
370
-1
  6
BYLAYER
100
AcDbCircle
 10
57.507108948540974
 20
38.756526675162377
 30
0.0
 40
1.2462567097242718
100
AcDbArc
 50
359.8291838773132
 51
90.170816122776415
  0
LINE
  5
1D5
100
AcDbEntity
100
AcDbLine
  8
Cut insides
 62
256
370
-1
  6
BYLAYER
 10
58.753360119795431
 20
38.752811210856265
 30
0.0
 11
58.753360119795431
 21
6.2511738137750257
 31
0.0
  0
ARC
  5
1D6
100
AcDbEntity
  8
Cut insides
 62
256
370
-1
  6
BYLAYER
100
AcDbCircle
 10
57.507086524815115
 20
6.2474807731931463
 30
0.0
 40
1.2462790667001726
100
AcDbArc
 50
269.83021784265731
 51
0.1697821573276746
  0
ARC
  5
1D7
100
AcDbEntity
  8
Cut insides
 62
256
370
-1
  6
BYLAYER
100
AcDbCircle
 10
57.500598066509461
 20
6.2483783960518053
 30
0.0
 40
1.2471743506692499
100
AcDbArc
 50
179.87157708018955
 51
270.1284229198215
  0
LINE
  5
1D8
100
AcDbEntity
100
AcDbLine
  8
Cut insides
 62
256
370
-1
  6
BYLAYER
 10
56.253426848670422
 20
6.2511738137750257
 30
0.0
 11
56.253426848670422
 21
38.752811210856265
 31
0.0
  0
ARC
  5
1D9
100
AcDbEntity
  8
Cut insides
 62
256
370
-1
  6
BYLAYER
100
AcDbCircle
 10
57.500575597076839
 20
38.755629098014609
 30
0.0
 40
1.2471519318595097
100
AcDbArc
 50
89.870542494112215
 51
180.12945750599397
  0
LINE
  5
1DA
100
AcDbEntity
100
AcDbLine
  8
Cut insides
 62
256
370
-1
  6
BYLAYER
 10
57.503393484232923
 20
40.002777846418759
 30
0.0
 11
57.503393484232923
 21
40.002777846418759
 31
0.0
  0
ARC
  5
1DB
100
AcDbEntity
  8
Cut insides
 62
256
370
-1
  6
BYLAYER
100
AcDbCircle
 10
62.507489109393177
 20
38.755629098013664
 30
0.0
 40
1.2471519318596138
100
AcDbArc
 50
359.87054249405111
 51
90.129457506079405
  0
LINE
  5
1DC
100
AcDbEntity
100
AcDbLine
  8
Cut insides
 62
256
370
-1
  6
BYLAYER
 10
63.754637857795423
 20
38.752811210856265
 30
0.0
 11
63.754637857795423
 21
6.2511738137750257
 31
0.0
  0
ARC
  5
1DD
100
AcDbEntity
  8
Cut insides
 62
256
370
-1
  6
BYLAYER
100
AcDbCircle
 10
62.507466639956199
 20
6.2483783960517911
 30
0.0
 40
1.2471743506691204
100
AcDbArc
 50
269.87157708018708
 51
0.1284229198104614
  0
ARC
  5
1DE
100
AcDbEntity
  8
Cut insides
 62
256
370
-1
  6
BYLAYER
100
AcDbCircle
 10
62.500978181650879
 20
6.2474807731931463
 30
0.0
 40
1.2462790667005883
100
AcDbArc
 50
179.83021784266586
 51
270.16978215733735
  0
LINE
  5
1DF
100
AcDbEntity
100
AcDbLine
  8
Cut insides
 62
256
370
-1
  6
BYLAYER
 10
61.254704586670428
 20
6.2511738137750257
 30
0.0
 11
61.254704586670428
 21
38.752811210856265
 31
0.0
  0
ARC
  5
1E0
100
AcDbEntity
  8
Cut insides
 62
256
370
-1
  6
BYLAYER
100
AcDbCircle
 10
62.500955757923393
 20
38.756526675161503
 30
0.0
 40
1.2462567097238804
100
AcDbArc
 50
89.82918387715543
 51
180.17081612264414
  0
LINE
  5
1E1
100
AcDbEntity
100
AcDbLine
  8
Cut insides
 62
256
370
-1
  6
BYLAYER
 10
62.504671222232929
 20
40.002777846418759
 30
0.0
 11
62.504671222232929
 21
40.002777846418759
 31
0.0
  0
ARC
  5
1E2
100
AcDbEntity
  8
Cut insides
 62
256
370
-1
  6
BYLAYER
100
AcDbCircle
 10
67.50825322879389
 20
38.756526675164146
 30
0.0
 40
1.246256709726389
100
AcDbArc
 50
359.82918387723419
 51
90.170816122908562
  0
LINE
  5
1E3
100
AcDbEntity
100
AcDbLine
  8
Cut insides
 62
256
370
-1
  6
BYLAYER
 10
68.75450440004542
 20
38.752811210856265
 30
0.0
 11
68.75450440004542
 21
6.2511738137750257
 31
0.0
  0
ARC
  5
1E4
100
AcDbEntity
  8
Cut insides
 62
256
370
-1
  6
BYLAYER
100
AcDbCircle
 10
67.5082308050645
 20
6.2474807731931321
 30
0.0
 40
1.2462790667001762
100
AcDbArc
 50
269.83021784268442
 51
0.1697821573319679
  0
ARC
  5
1E5
100
AcDbEntity
  8
Cut insides
 62
256
370
-1
  6
BYLAYER
100
AcDbCircle
 10
67.501742346759642
 20
6.2483783960517911
 30
0.0
 40
1.247174350668915
100
AcDbArc
 50
179.87157708018955
 51
270.12842291981354
  0
LINE
  5
1E6
100
AcDbEntity
100
AcDbLine
  8
Cut insides
 62
256
370
-1
  6
BYLAYER
 10
66.254571128920432
 20
6.2511738137750257
 30
0.0
 11
66.254571128920432
 21
38.752811210856265
 31
0.0
  0
ARC
  5
1E7
100
AcDbEntity
  8
Cut insides
 62
256
370
-1
  6
BYLAYER
100
AcDbCircle
 10
67.501719877322984
 20
38.755629098012442
 30
0.0
 40
1.2471519318549329
100
AcDbArc
 50
89.870542493934934
 51
180.12945750589262
  0
LINE
  5
1E8
100
AcDbEntity
100
AcDbLine
  8
Cut insides
 62
256
370
-1
  6
BYLAYER
 10
67.504537764482933
 20
40.002777846418759
 30
0.0
 11
67.504537764482933
 21
40.002777846418759
 31
0.0
  0
ARC
  5
1E9
100
AcDbEntity
  8
Cut insides
 62
256
370
-1
  6
BYLAYER
100
AcDbCircle
 10
72.508327718859093
 20
38.755327060099731
 30
0.0
 40
1.2474569561524911
100
AcDbArc
 50
359.8844468015111
 51
90.180202872426904
  0
LINE
  5
1EA
100
AcDbEntity
100
AcDbLine
  8
Cut insides
 62
256
370
-1
  6
BYLAYER
 10
73.755782138045419
 20
38.752811210856265
 30
0.0
 11
73.755782138045419
 21
6.2511738137750257
 31
0.0
  0
ARC
  5
1EB
100
AcDbEntity
  8
Cut insides
 62
256
370
-1
  6
BYLAYER
100
AcDbCircle
 10
72.508305277276293
 20
6.2486804314483919
 30
0.0
 40
1.2474793525791164
100
AcDbArc
 50
269.82083109275601
 51
0.1145192334095865
  0
ARC
  5
1EC
100
AcDbEntity
  8
Cut insides
 62
256
370
-1
  6
BYLAYER
100
AcDbCircle
 10
72.501608889010214
 20
6.2483783960516632
 30
0.0
 40
1.2471743506693003
100
AcDbArc
 50
179.87157708018103
 51
270.12842291978757
  0
LINE
  5
1ED
100
AcDbEntity
100
AcDbLine
  8
Cut insides
 62
256
370
-1
  6
BYLAYER
 10
71.254437671170422
 20
6.2511738137750257
 30
0.0
 11
71.254437671170422
 21
38.752811210856265
 31
0.0
  0
ARC
  5
1EE
100
AcDbEntity
  8
Cut insides
 62
256
370
-1
  6
BYLAYER
100
AcDbCircle
 10
72.501586419576498
 20
38.755629098015099
 30
0.0
 40
1.2471519318556608
100
AcDbArc
 50
89.870542494095588
 51
180.12945750601369
  0
LINE
  5
1EF
100
AcDbEntity
100
AcDbLine
  8
Cut insides
 62
256
370
-1
  6
BYLAYER
 10
72.504404306732937
 20
40.002777846418759
 30
0.0
 11
72.504404306732937
 21
40.002777846418759
 31
0.0
  0
INSERT
  5
1F0
100
AcDbEntity
100
AcDbBlockReference
  8
0
 62
256
370
-1
  6
BYLAYER
  2
shovel-accessory
 10
-0.0000000000000142
 20
0.0
 30
0.0
  0
ENDBLK
  5
1F1
100
AcDbEntity
  8
0
100
AcDbBlockEnd
  0
BLOCK
  5
1F2
100
AcDbEntity
  8
0
100
AcDbBlockBegin
  2
shovel-Nerves
 70
0
 10
0.0
 20
0.0
 30
0.0
  3
shovel-Nerves
  1

  0
INSERT
  5
1F3
100
AcDbEntity
100
AcDbBlockReference
  8
0
 62
256
370
-1
  6
BYLAYER
  2
shovel-accessory
 10
-0.0
 20
0.0000000000000284
 30
0.0
  0
IMAGE
  5
1F4
  8
Engrave
 62
256
370
-1
  6
BYLAYER
100
AcDbEntity
100
AcDbRasterImage
 90
0
 10
35.0
 20
5.0000000000000728
 30
0.0
 11
0.1
 21
0.0
 31
0.0
 12
0.0
 22
0.1
 32
0.0
 13
0.0
 23
0.0
340
1F5
 70
15
280
0
281
50
282
50
283
0
  0
INSERT
  5
1F6
100
AcDbEntity
100
AcDbBlockReference
  8
Engrave
 62
256
370
-1
  6
BYLAYER
  2
Nerves-logo
 10
43.277061855670112
 20
6.2784793814432689
 30
0.0
 41
0.15
 42
0.15
 43
1.0
  0
MTEXT
  5
1F7
100
AcDbEntity
100
AcDbMText
  8
Engrave
 62
256
370
-1
  6
BYLAYER
 10
52.5
 20
30.0
 30
0.0
 40
5.0
 41
0.0
 71
5
 72
1
  1
Nerves Project
  7
textstyle8
 50
0.0
 73
2
 44
1.0
  0
ENDBLK
  5
1F8
100
AcDbEntity
  8
0
100
AcDbBlockEnd
  0
ENDSEC
  0
SECTION
  2
ENTITIES
  0
INSERT
  5
1F9
100
AcDbEntity
100
AcDbBlockReference
  8
0
 62
256
370
-1
  6
BYLAYER
  2
top
 10
110.0
 20
160.0
 30
0.0
 50
270.0
  0
INSERT
  5
1FA
100
AcDbEntity
100
AcDbBlockReference
  8
0
 62
256
370
-1
  6
BYLAYER
  2
bottom
 10
10.0
 20
83.0
 30
0.0
 50
270.0
  0
INSERT
  5
1FB
100
AcDbEntity
100
AcDbBlockReference
  8
0
 62
256
370
-1
  6
BYLAYER
  2
side
 10
10.0
 20
160.0
 30
0.0
 41
-1.0
 42
-1.0
 43
1.0
 50
90.0
  0
LINE
  5
1FC
100
AcDbEntity
100
AcDbLine
  8
Letter page
 62
256
370
-1
  6
BYLAYER
 10
0.0
 20
0.0
 30
0.0
 11
215.90000000000001
 21
0.0
 31
0.0
  0
LINE
  5
1FD
100
AcDbEntity
100
AcDbLine
  8
Letter page
 62
256
370
-1
  6
BYLAYER
 10
215.90000000000001
 20
0.0
 30
0.0
 11
215.90000000000001
 21
279.39999999999998
 31
0.0
  0
LINE
  5
1FE
100
AcDbEntity
100
AcDbLine
  8
Letter page
 62
256
370
-1
  6
BYLAYER
 10
215.90000000000001
 20
279.39999999999998
 30
0.0
 11
0.0
 21
279.39999999999998
 31
0.0
  0
LINE
  5
1FF
100
AcDbEntity
100
AcDbLine
  8
Letter page
 62
256
370
-1
  6
BYLAYER
 10
0.0
 20
279.39999999999998
 30
0.0
 11
0.0
 21
0.0
 31
0.0
  0
LINE
  5
200
100
AcDbEntity
100
AcDbLine
  8
2x1 sheet
 62
256
370
-1
  6
BYLAYER
 10
0.0
 20
0.0
 30
0.0
 11
609.60000000000002
 21
0.0
 31
0.0
  0
LINE
  5
201
100
AcDbEntity
100
AcDbLine
  8
2x1 sheet
 62
256
370
-1
  6
BYLAYER
 10
609.60000000000002
 20
0.0
 30
0.0
 11
609.60000000000002
 21
304.80000000000001
 31
0.0
  0
LINE
  5
202
100
AcDbEntity
100
AcDbLine
  8
2x1 sheet
 62
256
370
-1
  6
BYLAYER
 10
609.60000000000002
 20
304.80000000000001
 30
0.0
 11
0.0
 21
304.80000000000001
 31
0.0
  0
LINE
  5
203
100
AcDbEntity
100
AcDbLine
  8
2x1 sheet
 62
256
370
-1
  6
BYLAYER
 10
0.0
 20
304.80000000000001
 30
0.0
 11
0.0
 21
0.0
 31
0.0
  0
INSERT
  5
204
100
AcDbEntity
100
AcDbBlockReference
  8
0
 62
256
370
-1
  6
BYLAYER
  2
side
 10
100.0
 20
30.0
 30
0.0
 41
1.0
 42
-1.0
 43
1.0
 50
90.0
  0
INSERT
  5
205
100
AcDbEntity
100
AcDbBlockReference
  8
Cut outside
 62
256
370
-1
  6
BYLAYER
  2
camera_holder
 10
20.0
 20
190.0
 30
0.0
  0
INSERT
  5
206
100
AcDbEntity
100
AcDbBlockReference
  8
0
 62
256
370
-1
  6
BYLAYER
  2
wheel
 10
240.0
 20
120.0
 30
0.0
  0
INSERT
  5
207
100
AcDbEntity
100
AcDbBlockReference
  8
0
 62
256
370
-1
  6
BYLAYER
  2
wheel
 10
240.0
 20
48.0
 30
0.0
  0
INSERT
  5
208
100
AcDbEntity
100
AcDbBlockReference
  8
Cut insides
 62
256
370
-1
  6
BYLAYER
  2
shovel-BEAM
 10
105.65855704697988
 20
172.32197986577179
 30
0.0
  0
INSERT
  5
209
100
AcDbEntity
100
AcDbBlockReference
  8
Cut insides
 62
256
370
-1
  6
BYLAYER
  2
shovel-LetItCrash
 10
215.00395973154363
 20
172.02724832214764
 30
0.0
  0
INSERT
  5
20A
100
AcDbEntity
100
AcDbBlockReference
  8
Cut insides
 62
256
370
-1
  6
BYLAYER
  2
shovel-Nerves
 10
323.90996644295308
 20
171.73251677852346
 30
0.0
  0
ENDSEC
  0
SECTION
  2
OBJECTS
  0
DICTIONARY
  5
C
100
AcDbDictionary
280
0
281
1
  3
ACAD_GROUP
350
D
  3
ACAD_LAYOUT
350
1A
  3
ACAD_MLINESTYLE
350
17
  3
ACAD_PLOTSETTINGS
350
19
  3
ACAD_PLOTSTYLENAME
350
E
  3
AcDbVariableDictionary
350
20B
  3
QCAD_OBJECTS
350
20C
  0
DICTIONARY
  5
D
100
AcDbDictionary
280
0
281
1
  0
ACDBDICTIONARYWDFLT
  5
E
100
AcDbDictionary
281
1
  3
Normal
350
F
100
AcDbDictionaryWithDefault
340
F
  0
ACDBPLACEHOLDER
  5
F
  0
DICTIONARY
  5
17
100
AcDbDictionary
280
0
281
1
  3
Standard
350
18
  0
MLINESTYLE
  5
18
100
AcDbMlineStyle
  2
STANDARD
 70
0
  3

 62
256
 51
90.0
 52
90.0
 71
2
 49
0.5
 62
256
  6
BYLAYER
 49
-0.5
 62
256
  6
BYLAYER
  0
DICTIONARY
  5
19
100
AcDbDictionary
280
0
281
1
  0
DICTIONARY
  5
1A
100
AcDbDictionary
281
1
  3
Layout1
350
1E
  3
Layout2
350
26
  3
Model
350
22
  0
LAYOUT
  5
1E
100
AcDbPlotSettings
  1

  2
none_device
  4

  6

 40
0.0
 41
0.0
 42
0.0
 43
0.0
 44
0.0
 45
0.0
 46
0.0
 47
0.0
 48
0.0
 49
0.0
140
0.0
141
0.0
142
1.0
143
1.0
 70
688
 72
0
 73
0
 74
5
  7

 75
16
147
1.0
148
0.0
149
0.0
100
AcDbLayout
  1
Layout1
 70
1
 71
1
 10
0.0
 20
0.0
 11
420.0
 21
297.0
 12
0.0
 22
0.0
 32
0.0
 14
100000000000000000000.0
 24
100000000000000000000.0
 34
100000000000000000000.0
 15
-100000000000000000000.0
 25
-100000000000000000000.0
 35
-100000000000000000000.0
146
0.0
 13
0.0
 23
0.0
 33
0.0
 16
1.0
 26
0.0
 36
0.0
 17
0.0
 27
1.0
 37
0.0
 76
0
330
1B
  0
LAYOUT
  5
22
100
AcDbPlotSettings
  1

  2
none_device
  4

  6

 40
0.0
 41
0.0
 42
0.0
 43
0.0
 44
0.0
 45
0.0
 46
0.0
 47
0.0
 48
0.0
 49
0.0
140
0.0
141
0.0
142
1.0
143
1.0
 70
1712
 72
0
 73
0
 74
0
  7

 75
0
147
1.0
148
0.0
149
0.0
100
AcDbLayout
  1
Model
 70
1
 71
0
 10
0.0
 20
0.0
 11
12.0
 21
9.0
 12
0.0
 22
0.0
 32
0.0
 14
0.0
 24
0.0
 34
0.0
 15
0.0
 25
0.0
 35
0.0
146
0.0
 13
0.0
 23
0.0
 33
0.0
 16
1.0
 26
0.0
 36
0.0
 17
0.0
 27
1.0
 37
0.0
 76
0
330
1F
  0
LAYOUT
  5
26
100
AcDbPlotSettings
  1

  2
none_device
  4

  6

 40
0.0
 41
0.0
 42
0.0
 43
0.0
 44
0.0
 45
0.0
 46
0.0
 47
0.0
 48
0.0
 49
0.0
140
0.0
141
0.0
142
1.0
143
1.0
 70
688
 72
0
 73
0
 74
5
  7

 75
16
147
1.0
148
0.0
149
0.0
100
AcDbLayout
  1
Layout2
 70
1
 71
2
 10
0.0
 20
0.0
 11
12.0
 21
9.0
 12
0.0
 22
0.0
 32
0.0
 14
0.0
 24
0.0
 34
0.0
 15
0.0
 25
0.0
 35
0.0
146
0.0
 13
0.0
 23
0.0
 33
0.0
 16
1.0
 26
0.0
 36
0.0
 17
0.0
 27
1.0
 37
0.0
 76
0
330
23
  0
DICTIONARY
  5
20B
100
AcDbDictionary
281
1
  3
DIMASSOC
350
20E
  3
HIDETEXT
350
20D
  0
DICTIONARYVAR
  5
20D
100
DictionaryVariables
280
0
  1
2
  0
DICTIONARYVAR
  5
20E
100
DictionaryVariables
280
0
  1
1
  0
DICTIONARY
  5
20C
100
AcDbDictionary
281
1
  3
Grid/DisplayGrid00
350
20F
  3
Grid/DisplayGrid01
350
210
  3
Grid/DisplayGrid02
350
211
  3
Grid/DisplayGrid03
350
212
  3
Grid/GridSpacingX00
350
213
  3
Grid/GridSpacingX01
350
214
  3
Grid/GridSpacingX02
350
215
  3
Grid/GridSpacingX03
350
216
  3
Grid/GridSpacingY00
350
217
  3
Grid/GridSpacingY01
350
218
  3
Grid/GridSpacingY02
350
219
  3
Grid/GridSpacingY03
350
21A
  3
Grid/IsometricGrid00
350
21B
  3
Grid/IsometricGrid01
350
21C
  3
Grid/IsometricGrid02
350
21D
  3
Grid/IsometricGrid03
350
21E
  3
Grid/IsometricProjection00
350
21F
  3
Grid/IsometricProjection01
350
220
  3
Grid/IsometricProjection02
350
221
  3
Grid/IsometricProjection03
350
222
  3
Grid/MetaGridSpacingX00
350
223
  3
Grid/MetaGridSpacingX01
350
224
  3
Grid/MetaGridSpacingX02
350
225
  3
Grid/MetaGridSpacingX03
350
226
  3
Grid/MetaGridSpacingY00
350
227
  3
Grid/MetaGridSpacingY01
350
228
  3
Grid/MetaGridSpacingY02
350
229
  3
Grid/MetaGridSpacingY03
350
22A
  3
MultiPageSettings/Columns
350
22B
  3
MultiPageSettings/GlueMarginsBottom
350
22C
  3
MultiPageSettings/GlueMarginsLeft
350
22D
  3
MultiPageSettings/GlueMarginsRight
350
22E
  3
MultiPageSettings/GlueMarginsTop
350
22F
  3
MultiPageSettings/PrintCropMarks
350
230
  3
MultiPageSettings/Rows
350
231
  3
PageSettings/OffsetX
350
232
  3
PageSettings/OffsetY
350
233
  3
PageSettings/PageOrientation
350
234
  3
PageSettings/PaperHeight
350
235
  3
PageSettings/PaperSizeName
350
236
  3
PageSettings/PaperWidth
350
237
  3
PageSettings/Scale
350
238
  3
PageSettings/ShowPaperBorders
350
239
  3
UnitSettings/PaperUnit
350
23A
  0
XRECORD
  5
20F
330
20C
100
AcDbXrecord
280
1
290
1
  0
XRECORD
  5
210
330
20C
100
AcDbXrecord
280
1
290
1
  0
XRECORD
  5
211
330
20C
100
AcDbXrecord
280
1
290
1
  0
XRECORD
  5
212
330
20C
100
AcDbXrecord
280
1
290
1
  0
XRECORD
  5
213
330
20C
100
AcDbXrecord
280
1
1000
auto
  0
XRECORD
  5
214
330
20C
100
AcDbXrecord
280
1
1000
auto
  0
XRECORD
  5
215
330
20C
100
AcDbXrecord
280
1
1000
auto
  0
XRECORD
  5
216
330
20C
100
AcDbXrecord
280
1
1000
auto
  0
XRECORD
  5
217
330
20C
100
AcDbXrecord
280
1
1000
auto
  0
XRECORD
  5
218
330
20C
100
AcDbXrecord
280
1
1000
auto
  0
XRECORD
  5
219
330
20C
100
AcDbXrecord
280
1
1000
auto
  0
XRECORD
  5
21A
330
20C
100
AcDbXrecord
280
1
1000
auto
  0
XRECORD
  5
21B
330
20C
100
AcDbXrecord
280
1
290
0
  0
XRECORD
  5
21C
330
20C
100
AcDbXrecord
280
1
290
0
  0
XRECORD
  5
21D
330
20C
100
AcDbXrecord
280
1
290
0
  0
XRECORD
  5
21E
330
20C
100
AcDbXrecord
280
1
290
0
  0
XRECORD
  5
21F
330
20C
100
AcDbXrecord
280
1
 90
0
  0
XRECORD
  5
220
330
20C
100
AcDbXrecord
280
1
 90
0
  0
XRECORD
  5
221
330
20C
100
AcDbXrecord
280
1
 90
0
  0
XRECORD
  5
222
330
20C
100
AcDbXrecord
280
1
 90
0
  0
XRECORD
  5
223
330
20C
100
AcDbXrecord
280
1
1000
auto
  0
XRECORD
  5
224
330
20C
100
AcDbXrecord
280
1
1000
auto
  0
XRECORD
  5
225
330
20C
100
AcDbXrecord
280
1
1000
auto
  0
XRECORD
  5
226
330
20C
100
AcDbXrecord
280
1
1000
auto
  0
XRECORD
  5
227
330
20C
100
AcDbXrecord
280
1
1000
auto
  0
XRECORD
  5
228
330
20C
100
AcDbXrecord
280
1
1000
auto
  0
XRECORD
  5
229
330
20C
100
AcDbXrecord
280
1
1000
auto
  0
XRECORD
  5
22A
330
20C
100
AcDbXrecord
280
1
1000
auto
  0
XRECORD
  5
22B
330
20C
100
AcDbXrecord
280
1
 90
1
  0
XRECORD
  5
22C
330
20C
100
AcDbXrecord
280
1
 40
10.0
  0
XRECORD
  5
22D
330
20C
100
AcDbXrecord
280
1
 40
10.0
  0
XRECORD
  5
22E
330
20C
100
AcDbXrecord
280
1
 40
10.0
  0
XRECORD
  5
22F
330
20C
100
AcDbXrecord
280
1
 40
10.0
  0
XRECORD
  5
230
330
20C
100
AcDbXrecord
280
1
290
0
  0
XRECORD
  5
231
330
20C
100
AcDbXrecord
280
1
 90
1
  0
XRECORD
  5
232
330
20C
100
AcDbXrecord
280
1
 40
0.0
  0
XRECORD
  5
233
330
20C
100
AcDbXrecord
280
1
 40
0.0
  0
XRECORD
  5
234
330
20C
100
AcDbXrecord
280
1
1000
Portrait
  0
XRECORD
  5
235
330
20C
100
AcDbXrecord
280
1
1000
305
  0
XRECORD
  5
236
330
20C
100
AcDbXrecord
280
1
1000
Custom
  0
XRECORD
  5
237
330
20C
100
AcDbXrecord
280
1
1000
609
  0
XRECORD
  5
238
330
20C
100
AcDbXrecord
280
1
1000
1:1
  0
XRECORD
  5
239
330
20C
100
AcDbXrecord
280
1
290
1
  0
XRECORD
  5
23A
330
20C
100
AcDbXrecord
280
1
 90
4
  0
IMAGEDEF
  5
197
100
AcDbRasterImageDef
 90
0
  1

 10
0.0
 20
0.0
 11
1.0
 21
1.0
280
1
281
0
  0
IMAGEDEF
  5
AC
100
AcDbRasterImageDef
 90
0
  1
C:/Users/fhunleth/Downloads/Erlang_logo.png
 10
27.0
 20
23.0
 11
1.0
 21
1.0
280
1
281
0
  0
ENDSEC
  0
EOF
